M48
; DRILL file {KiCad (5.1.0)-1} date 24.04.2020 14:50:22
; FORMAT={-:-/ absolute / inch / decimal}
; #@! TF.CreationDate,2020-04-24T14:50:22+08:00
; #@! TF.GenerationSoftware,Kicad,Pcbnew,(5.1.0)-1
FMAT,2
INCH
T1C0.0157
T2C0.0354
T3C0.0394
T4C0.0630
T5C0.1575
T6C0.1280
%
G90
G05
T1
X3.3307Y-1.563
X3.6102Y-1.9331
X3.6378Y-2.0827
X3.7244Y-1.7717
X3.748Y-1.4961
X3.8346Y-1.9882
X3.8785Y-1.499
X3.9176Y-1.1021
X3.9882Y-2.0157
X4.0551Y-1.3031
X4.0591Y-1.4646
X4.063Y-1.5394
X4.0699Y-1.696
X4.0787Y-1.9173
X4.0875Y-1.8563
X4.1102Y-1.2992
X4.1535Y-0.8819
X4.1535Y-1.2559
X4.1696Y-1.3278
X4.1732Y-1.1024
X4.185Y-1.374
X4.2126Y-1.0079
X4.2126Y-0.9144
X4.248Y-1.5039
X4.248Y-1.5669
X4.248Y-1.815
X4.2517Y-1.6919
X4.2795Y-0.7677
X4.3071Y-1.0551
X4.3071Y-2.1181
X4.311Y-1.9843
X4.3268Y-1.2992
X4.3307Y-1.3465
X4.3307Y-2.189
X4.3346Y-1.3858
X4.3543Y-1.9488
X4.3583Y-1.1496
X4.3804Y-1.6206
X4.3863Y-1.5817
X4.4837Y-1.9403
X4.4843Y-1.7244
X4.4915Y-1.6797
X4.5157Y-0.8386
X4.5522Y-1.1654
X4.563Y-1.9646
X4.5748Y-1.2598
X4.6102Y-0.8504
X4.6661Y-1.8272
X4.6772Y-1.378
X4.6811Y-1.9724
X4.7427Y-1.399
X4.7441Y-1.3543
X4.754Y-1.8668
X4.7953Y-1.6417
X4.8189Y-1.4252
X4.8972Y-1.426
X4.9143Y-1.8663
X4.9331Y-1.6291
X4.9701Y-1.7429
T2
X3.5276Y-1.437
X3.5276Y-1.537
X3.5276Y-1.637
X3.5276Y-1.737
X3.6276Y-1.487
X3.6276Y-1.587
X3.6276Y-1.687
X3.6276Y-1.787
X4.66Y-1.44
X4.66Y-1.54
X4.66Y-1.64
X4.66Y-1.74
X4.76Y-1.49
X4.76Y-1.59
X4.76Y-1.69
X4.76Y-1.79
T3
X3.7181Y-0.815
X3.8181Y-0.815
X3.9181Y-0.815
X4.0181Y-0.815
X4.1181Y-0.815
X3.1654Y-0.9291
X3.1654Y-1.0291
X3.1654Y-1.1291
X3.3551Y-0.815
X3.4551Y-0.815
X3.5551Y-0.815
X3.7677Y-0.9433
X3.7677Y-1.0433
X3.8677Y-0.9433
X3.8677Y-1.0433
X3.9677Y-0.9433
X3.9677Y-1.0433
X4.0677Y-0.9433
X4.0677Y-1.0433
X4.7913Y-0.8071
X4.7913Y-0.9071
T4
X3.1575Y-1.3061
X3.1575Y-1.9179
X5.1301Y-1.3091
X5.1301Y-1.9209
T5
X3.4528Y-1.122
X3.4528Y-2.1063
X4.8307Y-1.122
X4.8307Y-2.1063
T6
X3.2776Y-1.387
X3.2776Y-1.837
X5.01Y-1.39
X5.01Y-1.84
T0
M30
