G04 #@! TF.GenerationSoftware,KiCad,Pcbnew,(5.1.0)-1*
G04 #@! TF.CreationDate,2020-04-24T14:50:20+08:00*
G04 #@! TF.ProjectId,rs485_for_servo,72733438-355f-4666-9f72-5f736572766f,rev?*
G04 #@! TF.SameCoordinates,Original*
G04 #@! TF.FileFunction,Soldermask,Top*
G04 #@! TF.FilePolarity,Negative*
%FSLAX46Y46*%
G04 Gerber Fmt 4.6, Leading zero omitted, Abs format (unit mm)*
G04 Created by KiCad (PCBNEW (5.1.0)-1) date 2020-04-24 14:50:20*
%MOMM*%
%LPD*%
G04 APERTURE LIST*
%ADD10C,0.100000*%
G04 APERTURE END LIST*
D10*
G36*
X130051000Y-55701000D02*
G01*
X129149000Y-55701000D01*
X129149000Y-54699000D01*
X130051000Y-54699000D01*
X130051000Y-55701000D01*
X130051000Y-55701000D01*
G37*
G36*
X131001000Y-53701000D02*
G01*
X130099000Y-53701000D01*
X130099000Y-52699000D01*
X131001000Y-52699000D01*
X131001000Y-53701000D01*
X131001000Y-53701000D01*
G37*
G36*
X129101000Y-53701000D02*
G01*
X128199000Y-53701000D01*
X128199000Y-52699000D01*
X129101000Y-52699000D01*
X129101000Y-53701000D01*
X129101000Y-53701000D01*
G37*
G36*
X130606585Y-47269802D02*
G01*
X130756410Y-47299604D01*
X131038674Y-47416521D01*
X131292705Y-47586259D01*
X131508741Y-47802295D01*
X131678479Y-48056326D01*
X131795396Y-48338590D01*
X131809998Y-48412000D01*
X131839883Y-48562239D01*
X131855000Y-48638240D01*
X131855000Y-48943760D01*
X131795396Y-49243410D01*
X131678479Y-49525674D01*
X131508741Y-49779705D01*
X131292705Y-49995741D01*
X131038674Y-50165479D01*
X130756410Y-50282396D01*
X130606585Y-50312198D01*
X130456761Y-50342000D01*
X130151239Y-50342000D01*
X130001415Y-50312198D01*
X129851590Y-50282396D01*
X129569326Y-50165479D01*
X129315295Y-49995741D01*
X129099259Y-49779705D01*
X128929521Y-49525674D01*
X128812604Y-49243410D01*
X128753000Y-48943760D01*
X128753000Y-48638240D01*
X128768118Y-48562239D01*
X128798002Y-48412000D01*
X128812604Y-48338590D01*
X128929521Y-48056326D01*
X129099259Y-47802295D01*
X129315295Y-47586259D01*
X129569326Y-47416521D01*
X129851590Y-47299604D01*
X130001415Y-47269802D01*
X130151239Y-47240000D01*
X130456761Y-47240000D01*
X130606585Y-47269802D01*
X130606585Y-47269802D01*
G37*
G36*
X80502585Y-47193802D02*
G01*
X80652410Y-47223604D01*
X80934674Y-47340521D01*
X81188705Y-47510259D01*
X81404741Y-47726295D01*
X81574479Y-47980326D01*
X81691396Y-48262590D01*
X81708304Y-48347592D01*
X81751000Y-48562239D01*
X81751000Y-48867761D01*
X81721198Y-49017585D01*
X81691396Y-49167410D01*
X81574479Y-49449674D01*
X81404741Y-49703705D01*
X81188705Y-49919741D01*
X80934674Y-50089479D01*
X80652410Y-50206396D01*
X80502585Y-50236198D01*
X80352761Y-50266000D01*
X80047239Y-50266000D01*
X79897415Y-50236198D01*
X79747590Y-50206396D01*
X79465326Y-50089479D01*
X79211295Y-49919741D01*
X78995259Y-49703705D01*
X78825521Y-49449674D01*
X78708604Y-49167410D01*
X78678802Y-49017585D01*
X78649000Y-48867761D01*
X78649000Y-48562239D01*
X78691696Y-48347592D01*
X78708604Y-48262590D01*
X78825521Y-47980326D01*
X78995259Y-47726295D01*
X79211295Y-47510259D01*
X79465326Y-47340521D01*
X79747590Y-47223604D01*
X79897415Y-47193802D01*
X80047239Y-47164000D01*
X80352761Y-47164000D01*
X80502585Y-47193802D01*
X80502585Y-47193802D01*
G37*
G36*
X127580971Y-45092204D02*
G01*
X127742871Y-45124408D01*
X128047883Y-45250748D01*
X128322387Y-45434166D01*
X128555834Y-45667613D01*
X128739252Y-45942117D01*
X128865592Y-46247129D01*
X128875910Y-46299000D01*
X128917217Y-46506661D01*
X128930000Y-46570928D01*
X128930000Y-46901072D01*
X128865592Y-47224871D01*
X128739252Y-47529883D01*
X128555834Y-47804387D01*
X128322387Y-48037834D01*
X128047883Y-48221252D01*
X127742871Y-48347592D01*
X127419073Y-48412000D01*
X127088927Y-48412000D01*
X126765129Y-48347592D01*
X126460117Y-48221252D01*
X126185613Y-48037834D01*
X125952166Y-47804387D01*
X125768748Y-47529883D01*
X125642408Y-47224871D01*
X125578000Y-46901072D01*
X125578000Y-46570928D01*
X125590784Y-46506661D01*
X125632090Y-46299000D01*
X125642408Y-46247129D01*
X125768748Y-45942117D01*
X125952166Y-45667613D01*
X126185613Y-45434166D01*
X126460117Y-45250748D01*
X126765129Y-45124408D01*
X126927029Y-45092204D01*
X127088927Y-45060000D01*
X127419073Y-45060000D01*
X127580971Y-45092204D01*
X127580971Y-45092204D01*
G37*
G36*
X83548718Y-45010584D02*
G01*
X83738871Y-45048408D01*
X84043883Y-45174748D01*
X84318387Y-45358166D01*
X84551834Y-45591613D01*
X84735252Y-45866117D01*
X84861592Y-46171129D01*
X84876709Y-46247129D01*
X84911819Y-46423633D01*
X84926000Y-46494928D01*
X84926000Y-46825072D01*
X84861592Y-47148871D01*
X84735252Y-47453883D01*
X84551834Y-47728387D01*
X84318387Y-47961834D01*
X84043883Y-48145252D01*
X83738871Y-48271592D01*
X83415073Y-48336000D01*
X83084927Y-48336000D01*
X82923029Y-48303796D01*
X82761129Y-48271592D01*
X82456117Y-48145252D01*
X82181613Y-47961834D01*
X81948166Y-47728387D01*
X81764748Y-47453883D01*
X81638408Y-47148871D01*
X81574000Y-46825072D01*
X81574000Y-46494928D01*
X81588182Y-46423633D01*
X81623291Y-46247129D01*
X81638408Y-46171129D01*
X81764748Y-45866117D01*
X81948166Y-45591613D01*
X82181613Y-45358166D01*
X82456117Y-45174748D01*
X82761129Y-45048408D01*
X82951282Y-45010584D01*
X83084927Y-44984000D01*
X83415073Y-44984000D01*
X83548718Y-45010584D01*
X83548718Y-45010584D01*
G37*
G36*
X112888674Y-46303465D02*
G01*
X112926367Y-46314899D01*
X112961103Y-46333466D01*
X112991548Y-46358452D01*
X113016534Y-46388897D01*
X113035101Y-46423633D01*
X113046535Y-46461326D01*
X113051000Y-46506661D01*
X113051000Y-47343339D01*
X113046535Y-47388674D01*
X113035101Y-47426367D01*
X113016534Y-47461103D01*
X112991548Y-47491548D01*
X112961103Y-47516534D01*
X112926367Y-47535101D01*
X112888674Y-47546535D01*
X112843339Y-47551000D01*
X111756661Y-47551000D01*
X111711326Y-47546535D01*
X111673633Y-47535101D01*
X111638897Y-47516534D01*
X111608452Y-47491548D01*
X111583466Y-47461103D01*
X111564899Y-47426367D01*
X111553465Y-47388674D01*
X111549000Y-47343339D01*
X111549000Y-46506661D01*
X111553465Y-46461326D01*
X111564899Y-46423633D01*
X111583466Y-46388897D01*
X111608452Y-46358452D01*
X111638897Y-46333466D01*
X111673633Y-46314899D01*
X111711326Y-46303465D01*
X111756661Y-46299000D01*
X112843339Y-46299000D01*
X112888674Y-46303465D01*
X112888674Y-46303465D01*
G37*
G36*
X121705000Y-46267000D02*
G01*
X120103000Y-46267000D01*
X120103000Y-44665000D01*
X121705000Y-44665000D01*
X121705000Y-46267000D01*
X121705000Y-46267000D01*
G37*
G36*
X92373642Y-44619781D02*
G01*
X92519414Y-44680162D01*
X92519416Y-44680163D01*
X92650608Y-44767822D01*
X92762178Y-44879392D01*
X92849837Y-45010584D01*
X92849838Y-45010586D01*
X92910219Y-45156358D01*
X92941000Y-45311107D01*
X92941000Y-45468893D01*
X92910219Y-45623642D01*
X92849838Y-45769414D01*
X92849837Y-45769416D01*
X92762178Y-45900608D01*
X92650608Y-46012178D01*
X92519416Y-46099837D01*
X92519415Y-46099838D01*
X92519414Y-46099838D01*
X92373642Y-46160219D01*
X92218893Y-46191000D01*
X92061107Y-46191000D01*
X91906358Y-46160219D01*
X91760586Y-46099838D01*
X91760585Y-46099838D01*
X91760584Y-46099837D01*
X91629392Y-46012178D01*
X91517822Y-45900608D01*
X91430163Y-45769416D01*
X91430162Y-45769414D01*
X91369781Y-45623642D01*
X91339000Y-45468893D01*
X91339000Y-45311107D01*
X91369781Y-45156358D01*
X91430162Y-45010586D01*
X91430163Y-45010584D01*
X91517822Y-44879392D01*
X91629392Y-44767822D01*
X91760584Y-44680163D01*
X91760586Y-44680162D01*
X91906358Y-44619781D01*
X92061107Y-44589000D01*
X92218893Y-44589000D01*
X92373642Y-44619781D01*
X92373642Y-44619781D01*
G37*
G36*
X112888674Y-44253465D02*
G01*
X112926367Y-44264899D01*
X112961103Y-44283466D01*
X112991548Y-44308452D01*
X113016534Y-44338897D01*
X113035101Y-44373633D01*
X113046535Y-44411326D01*
X113051000Y-44456661D01*
X113051000Y-45293339D01*
X113046535Y-45338674D01*
X113035101Y-45376367D01*
X113016534Y-45411103D01*
X112991548Y-45441548D01*
X112961103Y-45466534D01*
X112926367Y-45485101D01*
X112888674Y-45496535D01*
X112843339Y-45501000D01*
X111756661Y-45501000D01*
X111711326Y-45496535D01*
X111673633Y-45485101D01*
X111638897Y-45466534D01*
X111608452Y-45441548D01*
X111583466Y-45411103D01*
X111564899Y-45376367D01*
X111553465Y-45338674D01*
X111549000Y-45293339D01*
X111549000Y-44456661D01*
X111553465Y-44411326D01*
X111564899Y-44373633D01*
X111583466Y-44338897D01*
X111608452Y-44308452D01*
X111638897Y-44283466D01*
X111673633Y-44264899D01*
X111711326Y-44253465D01*
X111756661Y-44249000D01*
X112843339Y-44249000D01*
X112888674Y-44253465D01*
X112888674Y-44253465D01*
G37*
G36*
X118597642Y-43425781D02*
G01*
X118743414Y-43486162D01*
X118743416Y-43486163D01*
X118874608Y-43573822D01*
X118986178Y-43685392D01*
X119023057Y-43740586D01*
X119073838Y-43816586D01*
X119134219Y-43962358D01*
X119165000Y-44117107D01*
X119165000Y-44274893D01*
X119134219Y-44429642D01*
X119096305Y-44521173D01*
X119073837Y-44575416D01*
X118986178Y-44706608D01*
X118874608Y-44818178D01*
X118743416Y-44905837D01*
X118743415Y-44905838D01*
X118743414Y-44905838D01*
X118597642Y-44966219D01*
X118442893Y-44997000D01*
X118285107Y-44997000D01*
X118130358Y-44966219D01*
X117984586Y-44905838D01*
X117984585Y-44905838D01*
X117984584Y-44905837D01*
X117853392Y-44818178D01*
X117741822Y-44706608D01*
X117654163Y-44575416D01*
X117631695Y-44521173D01*
X117593781Y-44429642D01*
X117563000Y-44274893D01*
X117563000Y-44117107D01*
X117593781Y-43962358D01*
X117654162Y-43816586D01*
X117704943Y-43740586D01*
X117741822Y-43685392D01*
X117853392Y-43573822D01*
X117984584Y-43486163D01*
X117984586Y-43486162D01*
X118130358Y-43425781D01*
X118285107Y-43395000D01*
X118442893Y-43395000D01*
X118597642Y-43425781D01*
X118597642Y-43425781D01*
G37*
G36*
X89833642Y-43349781D02*
G01*
X89979414Y-43410162D01*
X89979416Y-43410163D01*
X90110608Y-43497822D01*
X90222178Y-43609392D01*
X90309837Y-43740584D01*
X90309838Y-43740586D01*
X90370219Y-43886358D01*
X90401000Y-44041107D01*
X90401000Y-44198893D01*
X90370219Y-44353642D01*
X90338738Y-44429643D01*
X90309837Y-44499416D01*
X90222178Y-44630608D01*
X90110608Y-44742178D01*
X89979416Y-44829837D01*
X89979415Y-44829838D01*
X89979414Y-44829838D01*
X89833642Y-44890219D01*
X89678893Y-44921000D01*
X89521107Y-44921000D01*
X89366358Y-44890219D01*
X89220586Y-44829838D01*
X89220585Y-44829838D01*
X89220584Y-44829837D01*
X89089392Y-44742178D01*
X88977822Y-44630608D01*
X88890163Y-44499416D01*
X88861262Y-44429643D01*
X88829781Y-44353642D01*
X88799000Y-44198893D01*
X88799000Y-44041107D01*
X88829781Y-43886358D01*
X88890162Y-43740586D01*
X88890163Y-43740584D01*
X88977822Y-43609392D01*
X89089392Y-43497822D01*
X89220584Y-43410163D01*
X89220586Y-43410162D01*
X89366358Y-43349781D01*
X89521107Y-43319000D01*
X89678893Y-43319000D01*
X89833642Y-43349781D01*
X89833642Y-43349781D01*
G37*
G36*
X121137642Y-42155781D02*
G01*
X121283414Y-42216162D01*
X121283416Y-42216163D01*
X121414608Y-42303822D01*
X121526178Y-42415392D01*
X121563057Y-42470586D01*
X121613838Y-42546586D01*
X121674219Y-42692358D01*
X121705000Y-42847107D01*
X121705000Y-43004893D01*
X121674219Y-43159642D01*
X121613838Y-43305414D01*
X121613837Y-43305416D01*
X121526178Y-43436608D01*
X121414608Y-43548178D01*
X121283416Y-43635837D01*
X121283415Y-43635838D01*
X121283414Y-43635838D01*
X121137642Y-43696219D01*
X120982893Y-43727000D01*
X120825107Y-43727000D01*
X120670358Y-43696219D01*
X120524586Y-43635838D01*
X120524585Y-43635838D01*
X120524584Y-43635837D01*
X120393392Y-43548178D01*
X120281822Y-43436608D01*
X120194163Y-43305416D01*
X120194162Y-43305414D01*
X120133781Y-43159642D01*
X120103000Y-43004893D01*
X120103000Y-42847107D01*
X120133781Y-42692358D01*
X120194162Y-42546586D01*
X120244943Y-42470586D01*
X120281822Y-42415392D01*
X120393392Y-42303822D01*
X120524584Y-42216163D01*
X120524586Y-42216162D01*
X120670358Y-42155781D01*
X120825107Y-42125000D01*
X120982893Y-42125000D01*
X121137642Y-42155781D01*
X121137642Y-42155781D01*
G37*
G36*
X92373642Y-42079781D02*
G01*
X92516512Y-42138960D01*
X92519416Y-42140163D01*
X92650608Y-42227822D01*
X92762178Y-42339392D01*
X92849837Y-42470584D01*
X92849838Y-42470586D01*
X92910219Y-42616358D01*
X92941000Y-42771107D01*
X92941000Y-42928893D01*
X92910219Y-43083642D01*
X92878738Y-43159643D01*
X92849837Y-43229416D01*
X92762178Y-43360608D01*
X92650608Y-43472178D01*
X92519416Y-43559837D01*
X92519415Y-43559838D01*
X92519414Y-43559838D01*
X92373642Y-43620219D01*
X92218893Y-43651000D01*
X92061107Y-43651000D01*
X91906358Y-43620219D01*
X91760586Y-43559838D01*
X91760585Y-43559838D01*
X91760584Y-43559837D01*
X91629392Y-43472178D01*
X91517822Y-43360608D01*
X91430163Y-43229416D01*
X91401262Y-43159643D01*
X91369781Y-43083642D01*
X91339000Y-42928893D01*
X91339000Y-42771107D01*
X91369781Y-42616358D01*
X91430162Y-42470586D01*
X91430163Y-42470584D01*
X91517822Y-42339392D01*
X91629392Y-42227822D01*
X91760584Y-42140163D01*
X91763488Y-42138960D01*
X91906358Y-42079781D01*
X92061107Y-42049000D01*
X92218893Y-42049000D01*
X92373642Y-42079781D01*
X92373642Y-42079781D01*
G37*
G36*
X118597642Y-40885781D02*
G01*
X118743414Y-40946162D01*
X118743416Y-40946163D01*
X118874608Y-41033822D01*
X118986178Y-41145392D01*
X119073837Y-41276584D01*
X119073838Y-41276586D01*
X119134219Y-41422358D01*
X119165000Y-41577107D01*
X119165000Y-41734893D01*
X119134219Y-41889642D01*
X119073838Y-42035414D01*
X119073837Y-42035416D01*
X118986178Y-42166608D01*
X118874608Y-42278178D01*
X118743416Y-42365837D01*
X118743415Y-42365838D01*
X118743414Y-42365838D01*
X118597642Y-42426219D01*
X118442893Y-42457000D01*
X118285107Y-42457000D01*
X118130358Y-42426219D01*
X117984586Y-42365838D01*
X117984585Y-42365838D01*
X117984584Y-42365837D01*
X117853392Y-42278178D01*
X117741822Y-42166608D01*
X117654163Y-42035416D01*
X117654162Y-42035414D01*
X117593781Y-41889642D01*
X117563000Y-41734893D01*
X117563000Y-41577107D01*
X117593781Y-41422358D01*
X117654162Y-41276586D01*
X117654163Y-41276584D01*
X117741822Y-41145392D01*
X117853392Y-41033822D01*
X117984584Y-40946163D01*
X117984586Y-40946162D01*
X118130358Y-40885781D01*
X118285107Y-40855000D01*
X118442893Y-40855000D01*
X118597642Y-40885781D01*
X118597642Y-40885781D01*
G37*
G36*
X89833642Y-40809781D02*
G01*
X89979414Y-40870162D01*
X89979416Y-40870163D01*
X90110608Y-40957822D01*
X90222178Y-41069392D01*
X90309837Y-41200584D01*
X90309838Y-41200586D01*
X90370219Y-41346358D01*
X90401000Y-41501107D01*
X90401000Y-41658893D01*
X90370219Y-41813642D01*
X90338738Y-41889643D01*
X90309837Y-41959416D01*
X90222178Y-42090608D01*
X90110608Y-42202178D01*
X89979416Y-42289837D01*
X89979415Y-42289838D01*
X89979414Y-42289838D01*
X89833642Y-42350219D01*
X89678893Y-42381000D01*
X89521107Y-42381000D01*
X89366358Y-42350219D01*
X89220586Y-42289838D01*
X89220585Y-42289838D01*
X89220584Y-42289837D01*
X89089392Y-42202178D01*
X88977822Y-42090608D01*
X88890163Y-41959416D01*
X88861262Y-41889643D01*
X88829781Y-41813642D01*
X88799000Y-41658893D01*
X88799000Y-41501107D01*
X88829781Y-41346358D01*
X88890162Y-41200586D01*
X88890163Y-41200584D01*
X88977822Y-41069392D01*
X89089392Y-40957822D01*
X89220584Y-40870163D01*
X89220586Y-40870162D01*
X89366358Y-40809781D01*
X89521107Y-40779000D01*
X89678893Y-40779000D01*
X89833642Y-40809781D01*
X89833642Y-40809781D01*
G37*
G36*
X102320295Y-40550323D02*
G01*
X102327309Y-40552451D01*
X102341077Y-40559810D01*
X102363716Y-40569187D01*
X102387749Y-40573967D01*
X102412253Y-40573967D01*
X102436286Y-40569186D01*
X102458923Y-40559810D01*
X102472691Y-40552451D01*
X102479705Y-40550323D01*
X102493140Y-40549000D01*
X102806860Y-40549000D01*
X102820295Y-40550323D01*
X102827309Y-40552451D01*
X102841077Y-40559810D01*
X102863716Y-40569187D01*
X102887749Y-40573967D01*
X102912253Y-40573967D01*
X102936286Y-40569186D01*
X102958923Y-40559810D01*
X102972691Y-40552451D01*
X102979705Y-40550323D01*
X102993140Y-40549000D01*
X103306860Y-40549000D01*
X103320295Y-40550323D01*
X103327309Y-40552451D01*
X103341077Y-40559810D01*
X103363716Y-40569187D01*
X103387749Y-40573967D01*
X103412253Y-40573967D01*
X103436286Y-40569186D01*
X103458923Y-40559810D01*
X103472691Y-40552451D01*
X103479705Y-40550323D01*
X103493140Y-40549000D01*
X103806860Y-40549000D01*
X103820295Y-40550323D01*
X103827309Y-40552451D01*
X103841077Y-40559810D01*
X103863716Y-40569187D01*
X103887749Y-40573967D01*
X103912253Y-40573967D01*
X103936286Y-40569186D01*
X103958923Y-40559810D01*
X103972691Y-40552451D01*
X103979705Y-40550323D01*
X103993140Y-40549000D01*
X104306860Y-40549000D01*
X104320295Y-40550323D01*
X104327309Y-40552451D01*
X104341077Y-40559810D01*
X104363716Y-40569187D01*
X104387749Y-40573967D01*
X104412253Y-40573967D01*
X104436286Y-40569186D01*
X104458923Y-40559810D01*
X104472691Y-40552451D01*
X104479705Y-40550323D01*
X104493140Y-40549000D01*
X104806860Y-40549000D01*
X104820295Y-40550323D01*
X104827309Y-40552451D01*
X104841077Y-40559810D01*
X104863716Y-40569187D01*
X104887749Y-40573967D01*
X104912253Y-40573967D01*
X104936286Y-40569186D01*
X104958923Y-40559810D01*
X104972691Y-40552451D01*
X104979705Y-40550323D01*
X104993140Y-40549000D01*
X105306860Y-40549000D01*
X105320295Y-40550323D01*
X105327309Y-40552451D01*
X105341077Y-40559810D01*
X105363716Y-40569187D01*
X105387749Y-40573967D01*
X105412253Y-40573967D01*
X105436286Y-40569186D01*
X105458923Y-40559810D01*
X105472691Y-40552451D01*
X105479705Y-40550323D01*
X105493140Y-40549000D01*
X105806860Y-40549000D01*
X105820295Y-40550323D01*
X105827309Y-40552451D01*
X105841077Y-40559810D01*
X105863716Y-40569187D01*
X105887749Y-40573967D01*
X105912253Y-40573967D01*
X105936286Y-40569186D01*
X105958923Y-40559810D01*
X105972691Y-40552451D01*
X105979705Y-40550323D01*
X105993140Y-40549000D01*
X106306860Y-40549000D01*
X106320295Y-40550323D01*
X106327309Y-40552451D01*
X106341077Y-40559810D01*
X106363716Y-40569187D01*
X106387749Y-40573967D01*
X106412253Y-40573967D01*
X106436286Y-40569186D01*
X106458923Y-40559810D01*
X106472691Y-40552451D01*
X106479705Y-40550323D01*
X106493140Y-40549000D01*
X106806860Y-40549000D01*
X106820295Y-40550323D01*
X106827309Y-40552451D01*
X106841077Y-40559810D01*
X106863716Y-40569187D01*
X106887749Y-40573967D01*
X106912253Y-40573967D01*
X106936286Y-40569186D01*
X106958923Y-40559810D01*
X106972691Y-40552451D01*
X106979705Y-40550323D01*
X106993140Y-40549000D01*
X107306860Y-40549000D01*
X107320295Y-40550323D01*
X107327309Y-40552451D01*
X107341077Y-40559810D01*
X107363716Y-40569187D01*
X107387749Y-40573967D01*
X107412253Y-40573967D01*
X107436286Y-40569186D01*
X107458923Y-40559810D01*
X107472691Y-40552451D01*
X107479705Y-40550323D01*
X107493140Y-40549000D01*
X107806860Y-40549000D01*
X107820295Y-40550323D01*
X107827309Y-40552451D01*
X107841077Y-40559810D01*
X107863716Y-40569187D01*
X107887749Y-40573967D01*
X107912253Y-40573967D01*
X107936286Y-40569186D01*
X107958923Y-40559810D01*
X107972691Y-40552451D01*
X107979705Y-40550323D01*
X107993140Y-40549000D01*
X108306860Y-40549000D01*
X108320295Y-40550323D01*
X108327309Y-40552451D01*
X108341077Y-40559810D01*
X108363716Y-40569187D01*
X108387749Y-40573967D01*
X108412253Y-40573967D01*
X108436286Y-40569186D01*
X108458923Y-40559810D01*
X108472691Y-40552451D01*
X108479705Y-40550323D01*
X108493140Y-40549000D01*
X108806860Y-40549000D01*
X108820295Y-40550323D01*
X108827309Y-40552451D01*
X108841077Y-40559810D01*
X108863716Y-40569187D01*
X108887749Y-40573967D01*
X108912253Y-40573967D01*
X108936286Y-40569186D01*
X108958923Y-40559810D01*
X108972691Y-40552451D01*
X108979705Y-40550323D01*
X108993140Y-40549000D01*
X109306860Y-40549000D01*
X109320295Y-40550323D01*
X109327309Y-40552451D01*
X109341077Y-40559810D01*
X109363716Y-40569187D01*
X109387749Y-40573967D01*
X109412253Y-40573967D01*
X109436286Y-40569186D01*
X109458923Y-40559810D01*
X109472691Y-40552451D01*
X109479705Y-40550323D01*
X109493140Y-40549000D01*
X109806860Y-40549000D01*
X109820295Y-40550323D01*
X109827310Y-40552451D01*
X109833776Y-40555908D01*
X109839442Y-40560558D01*
X109844092Y-40566224D01*
X109847549Y-40572690D01*
X109849677Y-40579705D01*
X109851000Y-40593140D01*
X109851000Y-42156860D01*
X109849677Y-42170295D01*
X109847549Y-42177310D01*
X109844092Y-42183776D01*
X109839442Y-42189442D01*
X109833776Y-42194092D01*
X109827310Y-42197549D01*
X109820295Y-42199677D01*
X109806860Y-42201000D01*
X109493140Y-42201000D01*
X109479705Y-42199677D01*
X109472691Y-42197549D01*
X109458923Y-42190190D01*
X109436284Y-42180813D01*
X109412251Y-42176033D01*
X109387747Y-42176033D01*
X109363714Y-42180814D01*
X109341077Y-42190190D01*
X109327309Y-42197549D01*
X109320295Y-42199677D01*
X109306860Y-42201000D01*
X108993140Y-42201000D01*
X108979705Y-42199677D01*
X108972691Y-42197549D01*
X108958923Y-42190190D01*
X108936284Y-42180813D01*
X108912251Y-42176033D01*
X108887747Y-42176033D01*
X108863714Y-42180814D01*
X108841077Y-42190190D01*
X108827309Y-42197549D01*
X108820295Y-42199677D01*
X108806860Y-42201000D01*
X108493140Y-42201000D01*
X108479705Y-42199677D01*
X108472691Y-42197549D01*
X108458923Y-42190190D01*
X108436284Y-42180813D01*
X108412251Y-42176033D01*
X108387747Y-42176033D01*
X108363714Y-42180814D01*
X108341077Y-42190190D01*
X108327309Y-42197549D01*
X108320295Y-42199677D01*
X108306860Y-42201000D01*
X107993140Y-42201000D01*
X107979705Y-42199677D01*
X107972691Y-42197549D01*
X107958923Y-42190190D01*
X107936284Y-42180813D01*
X107912251Y-42176033D01*
X107887747Y-42176033D01*
X107863714Y-42180814D01*
X107841077Y-42190190D01*
X107827309Y-42197549D01*
X107820295Y-42199677D01*
X107806860Y-42201000D01*
X107493140Y-42201000D01*
X107479705Y-42199677D01*
X107472691Y-42197549D01*
X107458923Y-42190190D01*
X107436284Y-42180813D01*
X107412251Y-42176033D01*
X107387747Y-42176033D01*
X107363714Y-42180814D01*
X107341077Y-42190190D01*
X107327309Y-42197549D01*
X107320295Y-42199677D01*
X107306860Y-42201000D01*
X106993140Y-42201000D01*
X106979705Y-42199677D01*
X106972691Y-42197549D01*
X106958923Y-42190190D01*
X106936284Y-42180813D01*
X106912251Y-42176033D01*
X106887747Y-42176033D01*
X106863714Y-42180814D01*
X106841077Y-42190190D01*
X106827309Y-42197549D01*
X106820295Y-42199677D01*
X106806860Y-42201000D01*
X106493140Y-42201000D01*
X106479705Y-42199677D01*
X106472691Y-42197549D01*
X106458923Y-42190190D01*
X106436284Y-42180813D01*
X106412251Y-42176033D01*
X106387747Y-42176033D01*
X106363714Y-42180814D01*
X106341077Y-42190190D01*
X106327309Y-42197549D01*
X106320295Y-42199677D01*
X106306860Y-42201000D01*
X105993140Y-42201000D01*
X105979705Y-42199677D01*
X105972691Y-42197549D01*
X105958923Y-42190190D01*
X105936284Y-42180813D01*
X105912251Y-42176033D01*
X105887747Y-42176033D01*
X105863714Y-42180814D01*
X105841077Y-42190190D01*
X105827309Y-42197549D01*
X105820295Y-42199677D01*
X105806860Y-42201000D01*
X105493140Y-42201000D01*
X105479705Y-42199677D01*
X105472691Y-42197549D01*
X105458923Y-42190190D01*
X105436284Y-42180813D01*
X105412251Y-42176033D01*
X105387747Y-42176033D01*
X105363714Y-42180814D01*
X105341077Y-42190190D01*
X105327309Y-42197549D01*
X105320295Y-42199677D01*
X105306860Y-42201000D01*
X104993140Y-42201000D01*
X104979705Y-42199677D01*
X104972691Y-42197549D01*
X104958923Y-42190190D01*
X104936284Y-42180813D01*
X104912251Y-42176033D01*
X104887747Y-42176033D01*
X104863714Y-42180814D01*
X104841077Y-42190190D01*
X104827309Y-42197549D01*
X104820295Y-42199677D01*
X104806860Y-42201000D01*
X104493140Y-42201000D01*
X104479705Y-42199677D01*
X104472691Y-42197549D01*
X104458923Y-42190190D01*
X104436284Y-42180813D01*
X104412251Y-42176033D01*
X104387747Y-42176033D01*
X104363714Y-42180814D01*
X104341077Y-42190190D01*
X104327309Y-42197549D01*
X104320295Y-42199677D01*
X104306860Y-42201000D01*
X103993140Y-42201000D01*
X103979705Y-42199677D01*
X103972691Y-42197549D01*
X103958923Y-42190190D01*
X103936284Y-42180813D01*
X103912251Y-42176033D01*
X103887747Y-42176033D01*
X103863714Y-42180814D01*
X103841077Y-42190190D01*
X103827309Y-42197549D01*
X103820295Y-42199677D01*
X103806860Y-42201000D01*
X103493140Y-42201000D01*
X103479705Y-42199677D01*
X103472691Y-42197549D01*
X103458923Y-42190190D01*
X103436284Y-42180813D01*
X103412251Y-42176033D01*
X103387747Y-42176033D01*
X103363714Y-42180814D01*
X103341077Y-42190190D01*
X103327309Y-42197549D01*
X103320295Y-42199677D01*
X103306860Y-42201000D01*
X102993140Y-42201000D01*
X102979705Y-42199677D01*
X102972691Y-42197549D01*
X102958923Y-42190190D01*
X102936284Y-42180813D01*
X102912251Y-42176033D01*
X102887747Y-42176033D01*
X102863714Y-42180814D01*
X102841077Y-42190190D01*
X102827309Y-42197549D01*
X102820295Y-42199677D01*
X102806860Y-42201000D01*
X102493140Y-42201000D01*
X102479705Y-42199677D01*
X102472691Y-42197549D01*
X102458923Y-42190190D01*
X102436284Y-42180813D01*
X102412251Y-42176033D01*
X102387747Y-42176033D01*
X102363714Y-42180814D01*
X102341077Y-42190190D01*
X102327309Y-42197549D01*
X102320295Y-42199677D01*
X102306860Y-42201000D01*
X101993140Y-42201000D01*
X101979705Y-42199677D01*
X101972690Y-42197549D01*
X101966224Y-42194092D01*
X101960558Y-42189442D01*
X101955908Y-42183776D01*
X101952451Y-42177310D01*
X101950323Y-42170295D01*
X101949000Y-42156860D01*
X101949000Y-40593140D01*
X101950323Y-40579705D01*
X101952451Y-40572690D01*
X101955908Y-40566224D01*
X101960558Y-40560558D01*
X101966224Y-40555908D01*
X101972690Y-40552451D01*
X101979705Y-40550323D01*
X101993140Y-40549000D01*
X102306860Y-40549000D01*
X102320295Y-40550323D01*
X102320295Y-40550323D01*
G37*
G36*
X98654591Y-40278085D02*
G01*
X98688569Y-40288393D01*
X98719890Y-40305134D01*
X98747339Y-40327661D01*
X98769866Y-40355110D01*
X98786607Y-40386431D01*
X98796915Y-40420409D01*
X98801000Y-40461890D01*
X98801000Y-41138110D01*
X98796915Y-41179591D01*
X98786607Y-41213569D01*
X98769866Y-41244890D01*
X98747339Y-41272339D01*
X98719890Y-41294866D01*
X98688569Y-41311607D01*
X98654591Y-41321915D01*
X98613110Y-41326000D01*
X98011890Y-41326000D01*
X97970409Y-41321915D01*
X97936431Y-41311607D01*
X97905110Y-41294866D01*
X97877661Y-41272339D01*
X97855134Y-41244890D01*
X97838393Y-41213569D01*
X97828085Y-41179591D01*
X97824000Y-41138110D01*
X97824000Y-40461890D01*
X97828085Y-40420409D01*
X97838393Y-40386431D01*
X97855134Y-40355110D01*
X97877661Y-40327661D01*
X97905110Y-40305134D01*
X97936431Y-40288393D01*
X97970409Y-40278085D01*
X98011890Y-40274000D01*
X98613110Y-40274000D01*
X98654591Y-40278085D01*
X98654591Y-40278085D01*
G37*
G36*
X100229591Y-40278085D02*
G01*
X100263569Y-40288393D01*
X100294890Y-40305134D01*
X100322339Y-40327661D01*
X100344866Y-40355110D01*
X100361607Y-40386431D01*
X100371915Y-40420409D01*
X100376000Y-40461890D01*
X100376000Y-41138110D01*
X100371915Y-41179591D01*
X100361607Y-41213569D01*
X100344866Y-41244890D01*
X100322339Y-41272339D01*
X100294890Y-41294866D01*
X100263569Y-41311607D01*
X100229591Y-41321915D01*
X100188110Y-41326000D01*
X99586890Y-41326000D01*
X99545409Y-41321915D01*
X99511431Y-41311607D01*
X99480110Y-41294866D01*
X99452661Y-41272339D01*
X99430134Y-41244890D01*
X99413393Y-41213569D01*
X99403085Y-41179591D01*
X99399000Y-41138110D01*
X99399000Y-40461890D01*
X99403085Y-40420409D01*
X99413393Y-40386431D01*
X99430134Y-40355110D01*
X99452661Y-40327661D01*
X99480110Y-40305134D01*
X99511431Y-40288393D01*
X99545409Y-40278085D01*
X99586890Y-40274000D01*
X100188110Y-40274000D01*
X100229591Y-40278085D01*
X100229591Y-40278085D01*
G37*
G36*
X121137642Y-39615781D02*
G01*
X121283414Y-39676162D01*
X121283416Y-39676163D01*
X121414608Y-39763822D01*
X121526178Y-39875392D01*
X121563057Y-39930586D01*
X121613838Y-40006586D01*
X121674219Y-40152358D01*
X121705000Y-40307107D01*
X121705000Y-40464893D01*
X121674219Y-40619642D01*
X121613838Y-40765414D01*
X121613837Y-40765416D01*
X121526178Y-40896608D01*
X121414608Y-41008178D01*
X121283416Y-41095837D01*
X121283415Y-41095838D01*
X121283414Y-41095838D01*
X121137642Y-41156219D01*
X120982893Y-41187000D01*
X120825107Y-41187000D01*
X120670358Y-41156219D01*
X120524586Y-41095838D01*
X120524585Y-41095838D01*
X120524584Y-41095837D01*
X120393392Y-41008178D01*
X120281822Y-40896608D01*
X120194163Y-40765416D01*
X120194162Y-40765414D01*
X120133781Y-40619642D01*
X120103000Y-40464893D01*
X120103000Y-40307107D01*
X120133781Y-40152358D01*
X120194162Y-40006586D01*
X120244943Y-39930586D01*
X120281822Y-39875392D01*
X120393392Y-39763822D01*
X120524584Y-39676163D01*
X120524586Y-39676162D01*
X120670358Y-39615781D01*
X120825107Y-39585000D01*
X120982893Y-39585000D01*
X121137642Y-39615781D01*
X121137642Y-39615781D01*
G37*
G36*
X97084468Y-40103565D02*
G01*
X97123138Y-40115296D01*
X97158777Y-40134346D01*
X97190017Y-40159983D01*
X97215654Y-40191223D01*
X97234704Y-40226862D01*
X97246435Y-40265532D01*
X97251000Y-40311888D01*
X97251000Y-40963112D01*
X97246435Y-41009468D01*
X97234704Y-41048138D01*
X97215654Y-41083777D01*
X97190017Y-41115017D01*
X97158777Y-41140654D01*
X97123138Y-41159704D01*
X97084468Y-41171435D01*
X97038112Y-41176000D01*
X95961888Y-41176000D01*
X95915532Y-41171435D01*
X95876862Y-41159704D01*
X95841223Y-41140654D01*
X95809983Y-41115017D01*
X95784346Y-41083777D01*
X95765296Y-41048138D01*
X95753565Y-41009468D01*
X95749000Y-40963112D01*
X95749000Y-40311888D01*
X95753565Y-40265532D01*
X95765296Y-40226862D01*
X95784346Y-40191223D01*
X95809983Y-40159983D01*
X95841223Y-40134346D01*
X95876862Y-40115296D01*
X95915532Y-40103565D01*
X95961888Y-40099000D01*
X97038112Y-40099000D01*
X97084468Y-40103565D01*
X97084468Y-40103565D01*
G37*
G36*
X92373642Y-39539781D02*
G01*
X92519414Y-39600162D01*
X92519416Y-39600163D01*
X92650608Y-39687822D01*
X92762178Y-39799392D01*
X92849837Y-39930584D01*
X92849838Y-39930586D01*
X92910219Y-40076358D01*
X92941000Y-40231107D01*
X92941000Y-40388893D01*
X92910219Y-40543642D01*
X92866371Y-40649500D01*
X92849837Y-40689416D01*
X92762178Y-40820608D01*
X92650608Y-40932178D01*
X92519416Y-41019837D01*
X92519415Y-41019838D01*
X92519414Y-41019838D01*
X92373642Y-41080219D01*
X92218893Y-41111000D01*
X92061107Y-41111000D01*
X91906358Y-41080219D01*
X91760586Y-41019838D01*
X91760585Y-41019838D01*
X91760584Y-41019837D01*
X91629392Y-40932178D01*
X91517822Y-40820608D01*
X91430163Y-40689416D01*
X91413629Y-40649500D01*
X91369781Y-40543642D01*
X91339000Y-40388893D01*
X91339000Y-40231107D01*
X91369781Y-40076358D01*
X91430162Y-39930586D01*
X91430163Y-39930584D01*
X91517822Y-39799392D01*
X91629392Y-39687822D01*
X91760584Y-39600163D01*
X91760586Y-39600162D01*
X91906358Y-39539781D01*
X92061107Y-39509000D01*
X92218893Y-39509000D01*
X92373642Y-39539781D01*
X92373642Y-39539781D01*
G37*
G36*
X118597642Y-38345781D02*
G01*
X118743414Y-38406162D01*
X118743416Y-38406163D01*
X118874608Y-38493822D01*
X118986178Y-38605392D01*
X119073638Y-38736286D01*
X119073838Y-38736586D01*
X119134219Y-38882358D01*
X119165000Y-39037107D01*
X119165000Y-39194893D01*
X119134219Y-39349642D01*
X119073838Y-39495414D01*
X119073837Y-39495416D01*
X118986178Y-39626608D01*
X118874608Y-39738178D01*
X118743416Y-39825837D01*
X118743415Y-39825838D01*
X118743414Y-39825838D01*
X118597642Y-39886219D01*
X118442893Y-39917000D01*
X118285107Y-39917000D01*
X118130358Y-39886219D01*
X117984586Y-39825838D01*
X117984585Y-39825838D01*
X117984584Y-39825837D01*
X117853392Y-39738178D01*
X117741822Y-39626608D01*
X117654163Y-39495416D01*
X117654162Y-39495414D01*
X117593781Y-39349642D01*
X117563000Y-39194893D01*
X117563000Y-39037107D01*
X117593781Y-38882358D01*
X117654162Y-38736586D01*
X117654362Y-38736286D01*
X117741822Y-38605392D01*
X117853392Y-38493822D01*
X117984584Y-38406163D01*
X117984586Y-38406162D01*
X118130358Y-38345781D01*
X118285107Y-38315000D01*
X118442893Y-38315000D01*
X118597642Y-38345781D01*
X118597642Y-38345781D01*
G37*
G36*
X89833642Y-38269781D02*
G01*
X89979414Y-38330162D01*
X89979416Y-38330163D01*
X90110608Y-38417822D01*
X90222178Y-38529392D01*
X90302143Y-38649069D01*
X90309838Y-38660586D01*
X90370219Y-38806358D01*
X90401000Y-38961107D01*
X90401000Y-39118893D01*
X90370219Y-39273642D01*
X90338738Y-39349643D01*
X90309837Y-39419416D01*
X90222178Y-39550608D01*
X90110608Y-39662178D01*
X89979416Y-39749837D01*
X89979415Y-39749838D01*
X89979414Y-39749838D01*
X89833642Y-39810219D01*
X89678893Y-39841000D01*
X89521107Y-39841000D01*
X89366358Y-39810219D01*
X89220586Y-39749838D01*
X89220585Y-39749838D01*
X89220584Y-39749837D01*
X89089392Y-39662178D01*
X88977822Y-39550608D01*
X88890163Y-39419416D01*
X88861262Y-39349643D01*
X88829781Y-39273642D01*
X88799000Y-39118893D01*
X88799000Y-38961107D01*
X88829781Y-38806358D01*
X88890162Y-38660586D01*
X88897857Y-38649069D01*
X88977822Y-38529392D01*
X89089392Y-38417822D01*
X89220584Y-38330163D01*
X89220586Y-38330162D01*
X89366358Y-38269781D01*
X89521107Y-38239000D01*
X89678893Y-38239000D01*
X89833642Y-38269781D01*
X89833642Y-38269781D01*
G37*
G36*
X101020295Y-31750323D02*
G01*
X101027310Y-31752451D01*
X101033776Y-31755908D01*
X101039442Y-31760558D01*
X101044092Y-31766224D01*
X101047549Y-31772690D01*
X101049677Y-31779705D01*
X101051000Y-31793140D01*
X101051000Y-32106860D01*
X101049677Y-32120295D01*
X101047549Y-32127309D01*
X101040190Y-32141077D01*
X101030813Y-32163716D01*
X101026033Y-32187749D01*
X101026033Y-32212253D01*
X101030814Y-32236286D01*
X101040190Y-32258923D01*
X101047549Y-32272691D01*
X101049677Y-32279705D01*
X101051000Y-32293140D01*
X101051000Y-32606860D01*
X101049677Y-32620295D01*
X101047549Y-32627309D01*
X101040190Y-32641077D01*
X101030813Y-32663716D01*
X101026033Y-32687749D01*
X101026033Y-32712253D01*
X101030814Y-32736286D01*
X101040190Y-32758923D01*
X101047549Y-32772691D01*
X101049677Y-32779705D01*
X101051000Y-32793140D01*
X101051000Y-33106860D01*
X101049677Y-33120295D01*
X101047549Y-33127309D01*
X101040190Y-33141077D01*
X101030813Y-33163716D01*
X101026033Y-33187749D01*
X101026033Y-33212253D01*
X101030814Y-33236286D01*
X101040190Y-33258923D01*
X101047549Y-33272691D01*
X101049677Y-33279705D01*
X101051000Y-33293140D01*
X101051000Y-33606860D01*
X101049677Y-33620295D01*
X101047549Y-33627309D01*
X101040190Y-33641077D01*
X101030813Y-33663716D01*
X101026033Y-33687749D01*
X101026033Y-33712253D01*
X101030814Y-33736286D01*
X101040190Y-33758923D01*
X101047549Y-33772691D01*
X101049677Y-33779705D01*
X101051000Y-33793140D01*
X101051000Y-34106860D01*
X101049677Y-34120295D01*
X101047549Y-34127309D01*
X101040190Y-34141077D01*
X101030813Y-34163716D01*
X101026033Y-34187749D01*
X101026033Y-34212253D01*
X101030814Y-34236286D01*
X101040190Y-34258923D01*
X101047549Y-34272691D01*
X101049677Y-34279705D01*
X101051000Y-34293140D01*
X101051000Y-34606860D01*
X101049677Y-34620295D01*
X101047549Y-34627309D01*
X101040190Y-34641077D01*
X101030813Y-34663716D01*
X101026033Y-34687749D01*
X101026033Y-34712253D01*
X101030814Y-34736286D01*
X101040190Y-34758923D01*
X101047549Y-34772691D01*
X101049677Y-34779705D01*
X101051000Y-34793140D01*
X101051000Y-35106860D01*
X101049677Y-35120295D01*
X101047549Y-35127309D01*
X101040190Y-35141077D01*
X101030813Y-35163716D01*
X101026033Y-35187749D01*
X101026033Y-35212253D01*
X101030814Y-35236286D01*
X101040190Y-35258923D01*
X101047549Y-35272691D01*
X101049677Y-35279705D01*
X101051000Y-35293140D01*
X101051000Y-35606860D01*
X101049677Y-35620295D01*
X101047549Y-35627309D01*
X101040190Y-35641077D01*
X101030813Y-35663716D01*
X101026033Y-35687749D01*
X101026033Y-35712253D01*
X101030814Y-35736286D01*
X101040190Y-35758923D01*
X101047549Y-35772691D01*
X101049677Y-35779705D01*
X101051000Y-35793140D01*
X101051000Y-36106860D01*
X101049677Y-36120295D01*
X101047549Y-36127309D01*
X101040190Y-36141077D01*
X101030813Y-36163716D01*
X101026033Y-36187749D01*
X101026033Y-36212253D01*
X101030814Y-36236286D01*
X101040190Y-36258923D01*
X101047549Y-36272691D01*
X101049677Y-36279705D01*
X101051000Y-36293140D01*
X101051000Y-36606860D01*
X101049677Y-36620295D01*
X101047549Y-36627309D01*
X101040190Y-36641077D01*
X101030813Y-36663716D01*
X101026033Y-36687749D01*
X101026033Y-36712253D01*
X101030814Y-36736286D01*
X101040190Y-36758923D01*
X101047549Y-36772691D01*
X101049677Y-36779705D01*
X101051000Y-36793140D01*
X101051000Y-37106860D01*
X101049677Y-37120295D01*
X101047549Y-37127309D01*
X101040190Y-37141077D01*
X101030813Y-37163716D01*
X101026033Y-37187749D01*
X101026033Y-37212253D01*
X101030814Y-37236286D01*
X101040190Y-37258923D01*
X101047549Y-37272691D01*
X101049677Y-37279705D01*
X101051000Y-37293140D01*
X101051000Y-37606860D01*
X101049677Y-37620295D01*
X101047549Y-37627309D01*
X101040190Y-37641077D01*
X101030813Y-37663716D01*
X101026033Y-37687749D01*
X101026033Y-37712253D01*
X101030814Y-37736286D01*
X101040190Y-37758923D01*
X101047549Y-37772691D01*
X101049677Y-37779705D01*
X101051000Y-37793140D01*
X101051000Y-38106860D01*
X101049677Y-38120295D01*
X101047549Y-38127309D01*
X101040190Y-38141077D01*
X101030813Y-38163716D01*
X101026033Y-38187749D01*
X101026033Y-38212253D01*
X101030814Y-38236286D01*
X101040190Y-38258923D01*
X101047549Y-38272691D01*
X101049677Y-38279705D01*
X101051000Y-38293140D01*
X101051000Y-38606860D01*
X101049677Y-38620295D01*
X101047549Y-38627309D01*
X101040190Y-38641077D01*
X101030813Y-38663716D01*
X101026033Y-38687749D01*
X101026033Y-38712253D01*
X101030814Y-38736286D01*
X101040190Y-38758923D01*
X101047549Y-38772691D01*
X101049677Y-38779705D01*
X101051000Y-38793140D01*
X101051000Y-39106860D01*
X101049677Y-39120295D01*
X101047549Y-39127309D01*
X101040190Y-39141077D01*
X101030813Y-39163716D01*
X101026033Y-39187749D01*
X101026033Y-39212253D01*
X101030814Y-39236286D01*
X101040190Y-39258923D01*
X101047549Y-39272691D01*
X101049677Y-39279705D01*
X101051000Y-39293140D01*
X101051000Y-39606860D01*
X101049677Y-39620295D01*
X101047549Y-39627310D01*
X101044092Y-39633776D01*
X101039442Y-39639442D01*
X101033776Y-39644092D01*
X101027310Y-39647549D01*
X101020295Y-39649677D01*
X101006860Y-39651000D01*
X99443140Y-39651000D01*
X99429705Y-39649677D01*
X99422690Y-39647549D01*
X99416224Y-39644092D01*
X99410558Y-39639442D01*
X99405908Y-39633776D01*
X99402451Y-39627310D01*
X99400323Y-39620295D01*
X99399000Y-39606860D01*
X99399000Y-39293140D01*
X99400323Y-39279705D01*
X99402451Y-39272691D01*
X99409810Y-39258923D01*
X99419187Y-39236284D01*
X99423967Y-39212251D01*
X99423967Y-39187747D01*
X99419186Y-39163714D01*
X99409810Y-39141077D01*
X99402451Y-39127309D01*
X99400323Y-39120295D01*
X99399000Y-39106860D01*
X99399000Y-38793140D01*
X99400323Y-38779705D01*
X99402451Y-38772691D01*
X99409810Y-38758923D01*
X99419187Y-38736284D01*
X99423967Y-38712251D01*
X99423967Y-38687747D01*
X99419186Y-38663714D01*
X99409810Y-38641077D01*
X99402451Y-38627309D01*
X99400323Y-38620295D01*
X99399000Y-38606860D01*
X99399000Y-38293140D01*
X99400323Y-38279705D01*
X99402451Y-38272691D01*
X99409810Y-38258923D01*
X99419187Y-38236284D01*
X99423967Y-38212251D01*
X99423967Y-38187747D01*
X99419186Y-38163714D01*
X99409810Y-38141077D01*
X99402451Y-38127309D01*
X99400323Y-38120295D01*
X99399000Y-38106860D01*
X99399000Y-37793140D01*
X99400323Y-37779705D01*
X99402451Y-37772691D01*
X99409810Y-37758923D01*
X99419187Y-37736284D01*
X99423967Y-37712251D01*
X99423967Y-37687747D01*
X99419186Y-37663714D01*
X99409810Y-37641077D01*
X99402451Y-37627309D01*
X99400323Y-37620295D01*
X99399000Y-37606860D01*
X99399000Y-37293140D01*
X99400323Y-37279705D01*
X99402451Y-37272691D01*
X99409810Y-37258923D01*
X99419187Y-37236284D01*
X99423967Y-37212251D01*
X99423967Y-37187747D01*
X99419186Y-37163714D01*
X99409810Y-37141077D01*
X99402451Y-37127309D01*
X99400323Y-37120295D01*
X99399000Y-37106860D01*
X99399000Y-36793140D01*
X99400323Y-36779705D01*
X99402451Y-36772691D01*
X99409810Y-36758923D01*
X99419187Y-36736284D01*
X99423967Y-36712251D01*
X99423967Y-36687747D01*
X99419186Y-36663714D01*
X99409810Y-36641077D01*
X99402451Y-36627309D01*
X99400323Y-36620295D01*
X99399000Y-36606860D01*
X99399000Y-36293140D01*
X99400323Y-36279705D01*
X99402451Y-36272691D01*
X99409810Y-36258923D01*
X99419187Y-36236284D01*
X99423967Y-36212251D01*
X99423967Y-36187747D01*
X99419186Y-36163714D01*
X99409810Y-36141077D01*
X99402451Y-36127309D01*
X99400323Y-36120295D01*
X99399000Y-36106860D01*
X99399000Y-35793140D01*
X99400323Y-35779705D01*
X99402451Y-35772691D01*
X99409810Y-35758923D01*
X99419187Y-35736284D01*
X99423967Y-35712251D01*
X99423967Y-35687747D01*
X99419186Y-35663714D01*
X99409810Y-35641077D01*
X99402451Y-35627309D01*
X99400323Y-35620295D01*
X99399000Y-35606860D01*
X99399000Y-35293140D01*
X99400323Y-35279705D01*
X99402451Y-35272691D01*
X99409810Y-35258923D01*
X99419187Y-35236284D01*
X99423967Y-35212251D01*
X99423967Y-35187747D01*
X99419186Y-35163714D01*
X99409810Y-35141077D01*
X99402451Y-35127309D01*
X99400323Y-35120295D01*
X99399000Y-35106860D01*
X99399000Y-34793140D01*
X99400323Y-34779705D01*
X99402451Y-34772691D01*
X99409810Y-34758923D01*
X99419187Y-34736284D01*
X99423967Y-34712251D01*
X99423967Y-34687747D01*
X99419186Y-34663714D01*
X99409810Y-34641077D01*
X99402451Y-34627309D01*
X99400323Y-34620295D01*
X99399000Y-34606860D01*
X99399000Y-34293140D01*
X99400323Y-34279705D01*
X99402451Y-34272691D01*
X99409810Y-34258923D01*
X99419187Y-34236284D01*
X99423967Y-34212251D01*
X99423967Y-34187747D01*
X99419186Y-34163714D01*
X99409810Y-34141077D01*
X99402451Y-34127309D01*
X99400323Y-34120295D01*
X99399000Y-34106860D01*
X99399000Y-33793140D01*
X99400323Y-33779705D01*
X99402451Y-33772691D01*
X99409810Y-33758923D01*
X99419187Y-33736284D01*
X99423967Y-33712251D01*
X99423967Y-33687747D01*
X99419186Y-33663714D01*
X99409810Y-33641077D01*
X99402451Y-33627309D01*
X99400323Y-33620295D01*
X99399000Y-33606860D01*
X99399000Y-33293140D01*
X99400323Y-33279705D01*
X99402451Y-33272691D01*
X99409810Y-33258923D01*
X99419187Y-33236284D01*
X99423967Y-33212251D01*
X99423967Y-33187747D01*
X99419186Y-33163714D01*
X99409810Y-33141077D01*
X99402451Y-33127309D01*
X99400323Y-33120295D01*
X99399000Y-33106860D01*
X99399000Y-32793140D01*
X99400323Y-32779705D01*
X99402451Y-32772691D01*
X99409810Y-32758923D01*
X99419187Y-32736284D01*
X99423967Y-32712251D01*
X99423967Y-32687747D01*
X99419186Y-32663714D01*
X99409810Y-32641077D01*
X99402451Y-32627309D01*
X99400323Y-32620295D01*
X99399000Y-32606860D01*
X99399000Y-32293140D01*
X99400323Y-32279705D01*
X99402451Y-32272691D01*
X99409810Y-32258923D01*
X99419187Y-32236284D01*
X99423967Y-32212251D01*
X99423967Y-32187747D01*
X99419186Y-32163714D01*
X99409810Y-32141077D01*
X99402451Y-32127309D01*
X99400323Y-32120295D01*
X99399000Y-32106860D01*
X99399000Y-31793140D01*
X99400323Y-31779705D01*
X99402451Y-31772690D01*
X99405908Y-31766224D01*
X99410558Y-31760558D01*
X99416224Y-31755908D01*
X99422690Y-31752451D01*
X99429705Y-31750323D01*
X99443140Y-31749000D01*
X101006860Y-31749000D01*
X101020295Y-31750323D01*
X101020295Y-31750323D01*
G37*
G36*
X112370295Y-31750323D02*
G01*
X112377310Y-31752451D01*
X112383776Y-31755908D01*
X112389442Y-31760558D01*
X112394092Y-31766224D01*
X112397549Y-31772690D01*
X112399677Y-31779705D01*
X112401000Y-31793140D01*
X112401000Y-32106860D01*
X112399677Y-32120295D01*
X112397549Y-32127309D01*
X112390190Y-32141077D01*
X112380813Y-32163716D01*
X112376033Y-32187749D01*
X112376033Y-32212253D01*
X112380814Y-32236286D01*
X112390190Y-32258923D01*
X112397549Y-32272691D01*
X112399677Y-32279705D01*
X112401000Y-32293140D01*
X112401000Y-32606860D01*
X112399677Y-32620295D01*
X112397549Y-32627309D01*
X112390190Y-32641077D01*
X112380813Y-32663716D01*
X112376033Y-32687749D01*
X112376033Y-32712253D01*
X112380814Y-32736286D01*
X112390190Y-32758923D01*
X112397549Y-32772691D01*
X112399677Y-32779705D01*
X112401000Y-32793140D01*
X112401000Y-33106860D01*
X112399677Y-33120295D01*
X112397549Y-33127309D01*
X112390190Y-33141077D01*
X112380813Y-33163716D01*
X112376033Y-33187749D01*
X112376033Y-33212253D01*
X112380814Y-33236286D01*
X112390190Y-33258923D01*
X112397549Y-33272691D01*
X112399677Y-33279705D01*
X112401000Y-33293140D01*
X112401000Y-33606860D01*
X112399677Y-33620295D01*
X112397549Y-33627309D01*
X112390190Y-33641077D01*
X112380813Y-33663716D01*
X112376033Y-33687749D01*
X112376033Y-33712253D01*
X112380814Y-33736286D01*
X112390190Y-33758923D01*
X112397549Y-33772691D01*
X112399677Y-33779705D01*
X112401000Y-33793140D01*
X112401000Y-34106860D01*
X112399677Y-34120295D01*
X112397549Y-34127309D01*
X112390190Y-34141077D01*
X112380813Y-34163716D01*
X112376033Y-34187749D01*
X112376033Y-34212253D01*
X112380814Y-34236286D01*
X112390190Y-34258923D01*
X112397549Y-34272691D01*
X112399677Y-34279705D01*
X112401000Y-34293140D01*
X112401000Y-34606860D01*
X112399677Y-34620295D01*
X112397549Y-34627309D01*
X112390190Y-34641077D01*
X112380813Y-34663716D01*
X112376033Y-34687749D01*
X112376033Y-34712253D01*
X112380814Y-34736286D01*
X112390190Y-34758923D01*
X112397549Y-34772691D01*
X112399677Y-34779705D01*
X112401000Y-34793140D01*
X112401000Y-35106860D01*
X112399677Y-35120295D01*
X112397549Y-35127309D01*
X112390190Y-35141077D01*
X112380813Y-35163716D01*
X112376033Y-35187749D01*
X112376033Y-35212253D01*
X112380814Y-35236286D01*
X112390190Y-35258923D01*
X112397549Y-35272691D01*
X112399677Y-35279705D01*
X112401000Y-35293140D01*
X112401000Y-35606860D01*
X112399677Y-35620295D01*
X112397549Y-35627309D01*
X112390190Y-35641077D01*
X112380813Y-35663716D01*
X112376033Y-35687749D01*
X112376033Y-35712253D01*
X112380814Y-35736286D01*
X112390190Y-35758923D01*
X112397549Y-35772691D01*
X112399677Y-35779705D01*
X112401000Y-35793140D01*
X112401000Y-36106860D01*
X112399677Y-36120295D01*
X112397549Y-36127309D01*
X112390190Y-36141077D01*
X112380813Y-36163716D01*
X112376033Y-36187749D01*
X112376033Y-36212253D01*
X112380814Y-36236286D01*
X112390190Y-36258923D01*
X112397549Y-36272691D01*
X112399677Y-36279705D01*
X112401000Y-36293140D01*
X112401000Y-36606860D01*
X112399677Y-36620295D01*
X112397549Y-36627309D01*
X112390190Y-36641077D01*
X112380813Y-36663716D01*
X112376033Y-36687749D01*
X112376033Y-36712253D01*
X112380814Y-36736286D01*
X112390190Y-36758923D01*
X112397549Y-36772691D01*
X112399677Y-36779705D01*
X112401000Y-36793140D01*
X112401000Y-37106860D01*
X112399677Y-37120295D01*
X112397549Y-37127309D01*
X112390190Y-37141077D01*
X112380813Y-37163716D01*
X112376033Y-37187749D01*
X112376033Y-37212253D01*
X112380814Y-37236286D01*
X112390190Y-37258923D01*
X112397549Y-37272691D01*
X112399677Y-37279705D01*
X112401000Y-37293140D01*
X112401000Y-37606860D01*
X112399677Y-37620295D01*
X112397549Y-37627309D01*
X112390190Y-37641077D01*
X112380813Y-37663716D01*
X112376033Y-37687749D01*
X112376033Y-37712253D01*
X112380814Y-37736286D01*
X112390190Y-37758923D01*
X112397549Y-37772691D01*
X112399677Y-37779705D01*
X112401000Y-37793140D01*
X112401000Y-38106860D01*
X112399677Y-38120295D01*
X112397549Y-38127309D01*
X112390190Y-38141077D01*
X112380813Y-38163716D01*
X112376033Y-38187749D01*
X112376033Y-38212253D01*
X112380814Y-38236286D01*
X112390190Y-38258923D01*
X112397549Y-38272691D01*
X112399677Y-38279705D01*
X112401000Y-38293140D01*
X112401000Y-38606860D01*
X112399677Y-38620295D01*
X112397549Y-38627309D01*
X112390190Y-38641077D01*
X112380813Y-38663716D01*
X112376033Y-38687749D01*
X112376033Y-38712253D01*
X112380814Y-38736286D01*
X112390190Y-38758923D01*
X112397549Y-38772691D01*
X112399677Y-38779705D01*
X112401000Y-38793140D01*
X112401000Y-39106860D01*
X112399677Y-39120295D01*
X112397549Y-39127309D01*
X112390190Y-39141077D01*
X112380813Y-39163716D01*
X112376033Y-39187749D01*
X112376033Y-39212253D01*
X112380814Y-39236286D01*
X112390190Y-39258923D01*
X112397549Y-39272691D01*
X112399677Y-39279705D01*
X112401000Y-39293140D01*
X112401000Y-39606860D01*
X112399677Y-39620295D01*
X112397549Y-39627310D01*
X112394092Y-39633776D01*
X112389442Y-39639442D01*
X112383776Y-39644092D01*
X112377310Y-39647549D01*
X112370295Y-39649677D01*
X112356860Y-39651000D01*
X110793140Y-39651000D01*
X110779705Y-39649677D01*
X110772690Y-39647549D01*
X110766224Y-39644092D01*
X110760558Y-39639442D01*
X110755908Y-39633776D01*
X110752451Y-39627310D01*
X110750323Y-39620295D01*
X110749000Y-39606860D01*
X110749000Y-39293140D01*
X110750323Y-39279705D01*
X110752451Y-39272691D01*
X110759810Y-39258923D01*
X110769187Y-39236284D01*
X110773967Y-39212251D01*
X110773967Y-39187747D01*
X110769186Y-39163714D01*
X110759810Y-39141077D01*
X110752451Y-39127309D01*
X110750323Y-39120295D01*
X110749000Y-39106860D01*
X110749000Y-38793140D01*
X110750323Y-38779705D01*
X110752451Y-38772691D01*
X110759810Y-38758923D01*
X110769187Y-38736284D01*
X110773967Y-38712251D01*
X110773967Y-38687747D01*
X110769186Y-38663714D01*
X110759810Y-38641077D01*
X110752451Y-38627309D01*
X110750323Y-38620295D01*
X110749000Y-38606860D01*
X110749000Y-38293140D01*
X110750323Y-38279705D01*
X110752451Y-38272691D01*
X110759810Y-38258923D01*
X110769187Y-38236284D01*
X110773967Y-38212251D01*
X110773967Y-38187747D01*
X110769186Y-38163714D01*
X110759810Y-38141077D01*
X110752451Y-38127309D01*
X110750323Y-38120295D01*
X110749000Y-38106860D01*
X110749000Y-37793140D01*
X110750323Y-37779705D01*
X110752451Y-37772691D01*
X110759810Y-37758923D01*
X110769187Y-37736284D01*
X110773967Y-37712251D01*
X110773967Y-37687747D01*
X110769186Y-37663714D01*
X110759810Y-37641077D01*
X110752451Y-37627309D01*
X110750323Y-37620295D01*
X110749000Y-37606860D01*
X110749000Y-37293140D01*
X110750323Y-37279705D01*
X110752451Y-37272691D01*
X110759810Y-37258923D01*
X110769187Y-37236284D01*
X110773967Y-37212251D01*
X110773967Y-37187747D01*
X110769186Y-37163714D01*
X110759810Y-37141077D01*
X110752451Y-37127309D01*
X110750323Y-37120295D01*
X110749000Y-37106860D01*
X110749000Y-36793140D01*
X110750323Y-36779705D01*
X110752451Y-36772691D01*
X110759810Y-36758923D01*
X110769187Y-36736284D01*
X110773967Y-36712251D01*
X110773967Y-36687747D01*
X110769186Y-36663714D01*
X110759810Y-36641077D01*
X110752451Y-36627309D01*
X110750323Y-36620295D01*
X110749000Y-36606860D01*
X110749000Y-36293140D01*
X110750323Y-36279705D01*
X110752451Y-36272691D01*
X110759810Y-36258923D01*
X110769187Y-36236284D01*
X110773967Y-36212251D01*
X110773967Y-36187747D01*
X110769186Y-36163714D01*
X110759810Y-36141077D01*
X110752451Y-36127309D01*
X110750323Y-36120295D01*
X110749000Y-36106860D01*
X110749000Y-35793140D01*
X110750323Y-35779705D01*
X110752451Y-35772691D01*
X110759810Y-35758923D01*
X110769187Y-35736284D01*
X110773967Y-35712251D01*
X110773967Y-35687747D01*
X110769186Y-35663714D01*
X110759810Y-35641077D01*
X110752451Y-35627309D01*
X110750323Y-35620295D01*
X110749000Y-35606860D01*
X110749000Y-35293140D01*
X110750323Y-35279705D01*
X110752451Y-35272691D01*
X110759810Y-35258923D01*
X110769187Y-35236284D01*
X110773967Y-35212251D01*
X110773967Y-35187747D01*
X110769186Y-35163714D01*
X110759810Y-35141077D01*
X110752451Y-35127309D01*
X110750323Y-35120295D01*
X110749000Y-35106860D01*
X110749000Y-34793140D01*
X110750323Y-34779705D01*
X110752451Y-34772691D01*
X110759810Y-34758923D01*
X110769187Y-34736284D01*
X110773967Y-34712251D01*
X110773967Y-34687747D01*
X110769186Y-34663714D01*
X110759810Y-34641077D01*
X110752451Y-34627309D01*
X110750323Y-34620295D01*
X110749000Y-34606860D01*
X110749000Y-34293140D01*
X110750323Y-34279705D01*
X110752451Y-34272691D01*
X110759810Y-34258923D01*
X110769187Y-34236284D01*
X110773967Y-34212251D01*
X110773967Y-34187747D01*
X110769186Y-34163714D01*
X110759810Y-34141077D01*
X110752451Y-34127309D01*
X110750323Y-34120295D01*
X110749000Y-34106860D01*
X110749000Y-33793140D01*
X110750323Y-33779705D01*
X110752451Y-33772691D01*
X110759810Y-33758923D01*
X110769187Y-33736284D01*
X110773967Y-33712251D01*
X110773967Y-33687747D01*
X110769186Y-33663714D01*
X110759810Y-33641077D01*
X110752451Y-33627309D01*
X110750323Y-33620295D01*
X110749000Y-33606860D01*
X110749000Y-33293140D01*
X110750323Y-33279705D01*
X110752451Y-33272691D01*
X110759810Y-33258923D01*
X110769187Y-33236284D01*
X110773967Y-33212251D01*
X110773967Y-33187747D01*
X110769186Y-33163714D01*
X110759810Y-33141077D01*
X110752451Y-33127309D01*
X110750323Y-33120295D01*
X110749000Y-33106860D01*
X110749000Y-32793140D01*
X110750323Y-32779705D01*
X110752451Y-32772691D01*
X110759810Y-32758923D01*
X110769187Y-32736284D01*
X110773967Y-32712251D01*
X110773967Y-32687747D01*
X110769186Y-32663714D01*
X110759810Y-32641077D01*
X110752451Y-32627309D01*
X110750323Y-32620295D01*
X110749000Y-32606860D01*
X110749000Y-32293140D01*
X110750323Y-32279705D01*
X110752451Y-32272691D01*
X110759810Y-32258923D01*
X110769187Y-32236284D01*
X110773967Y-32212251D01*
X110773967Y-32187747D01*
X110769186Y-32163714D01*
X110759810Y-32141077D01*
X110752451Y-32127309D01*
X110750323Y-32120295D01*
X110749000Y-32106860D01*
X110749000Y-31793140D01*
X110750323Y-31779705D01*
X110752451Y-31772690D01*
X110755908Y-31766224D01*
X110760558Y-31760558D01*
X110766224Y-31755908D01*
X110772690Y-31752451D01*
X110779705Y-31750323D01*
X110793140Y-31749000D01*
X112356860Y-31749000D01*
X112370295Y-31750323D01*
X112370295Y-31750323D01*
G37*
G36*
X97084468Y-38228565D02*
G01*
X97123138Y-38240296D01*
X97158777Y-38259346D01*
X97190017Y-38284983D01*
X97215654Y-38316223D01*
X97234704Y-38351862D01*
X97246435Y-38390532D01*
X97251000Y-38436888D01*
X97251000Y-39088112D01*
X97246435Y-39134468D01*
X97234704Y-39173138D01*
X97215654Y-39208777D01*
X97190017Y-39240017D01*
X97158777Y-39265654D01*
X97123138Y-39284704D01*
X97084468Y-39296435D01*
X97038112Y-39301000D01*
X95961888Y-39301000D01*
X95915532Y-39296435D01*
X95876862Y-39284704D01*
X95841223Y-39265654D01*
X95809983Y-39240017D01*
X95784346Y-39208777D01*
X95765296Y-39173138D01*
X95753565Y-39134468D01*
X95749000Y-39088112D01*
X95749000Y-38436888D01*
X95753565Y-38390532D01*
X95765296Y-38351862D01*
X95784346Y-38316223D01*
X95809983Y-38284983D01*
X95841223Y-38259346D01*
X95876862Y-38240296D01*
X95915532Y-38228565D01*
X95961888Y-38224000D01*
X97038112Y-38224000D01*
X97084468Y-38228565D01*
X97084468Y-38228565D01*
G37*
G36*
X121137642Y-37075781D02*
G01*
X121283414Y-37136162D01*
X121283416Y-37136163D01*
X121414608Y-37223822D01*
X121526178Y-37335392D01*
X121563057Y-37390586D01*
X121613838Y-37466586D01*
X121674219Y-37612358D01*
X121705000Y-37767107D01*
X121705000Y-37924893D01*
X121674219Y-38079642D01*
X121644661Y-38151000D01*
X121613837Y-38225416D01*
X121526178Y-38356608D01*
X121414608Y-38468178D01*
X121283416Y-38555837D01*
X121283415Y-38555838D01*
X121283414Y-38555838D01*
X121137642Y-38616219D01*
X120982893Y-38647000D01*
X120825107Y-38647000D01*
X120670358Y-38616219D01*
X120524586Y-38555838D01*
X120524585Y-38555838D01*
X120524584Y-38555837D01*
X120393392Y-38468178D01*
X120281822Y-38356608D01*
X120194163Y-38225416D01*
X120163339Y-38151000D01*
X120133781Y-38079642D01*
X120103000Y-37924893D01*
X120103000Y-37767107D01*
X120133781Y-37612358D01*
X120194162Y-37466586D01*
X120244943Y-37390586D01*
X120281822Y-37335392D01*
X120393392Y-37223822D01*
X120524584Y-37136163D01*
X120524586Y-37136162D01*
X120670358Y-37075781D01*
X120825107Y-37045000D01*
X120982893Y-37045000D01*
X121137642Y-37075781D01*
X121137642Y-37075781D01*
G37*
G36*
X92373642Y-36999781D02*
G01*
X92519414Y-37060162D01*
X92519416Y-37060163D01*
X92650608Y-37147822D01*
X92762178Y-37259392D01*
X92843934Y-37381750D01*
X92849838Y-37390586D01*
X92910219Y-37536358D01*
X92941000Y-37691107D01*
X92941000Y-37848893D01*
X92910219Y-38003642D01*
X92853291Y-38141077D01*
X92849837Y-38149416D01*
X92762178Y-38280608D01*
X92650608Y-38392178D01*
X92519416Y-38479837D01*
X92519415Y-38479838D01*
X92519414Y-38479838D01*
X92373642Y-38540219D01*
X92218893Y-38571000D01*
X92061107Y-38571000D01*
X91906358Y-38540219D01*
X91760586Y-38479838D01*
X91760585Y-38479838D01*
X91760584Y-38479837D01*
X91629392Y-38392178D01*
X91517822Y-38280608D01*
X91430163Y-38149416D01*
X91426709Y-38141077D01*
X91369781Y-38003642D01*
X91339000Y-37848893D01*
X91339000Y-37691107D01*
X91369781Y-37536358D01*
X91430162Y-37390586D01*
X91436066Y-37381750D01*
X91517822Y-37259392D01*
X91629392Y-37147822D01*
X91760584Y-37060163D01*
X91760586Y-37060162D01*
X91906358Y-36999781D01*
X92061107Y-36969000D01*
X92218893Y-36969000D01*
X92373642Y-36999781D01*
X92373642Y-36999781D01*
G37*
G36*
X98229591Y-36578085D02*
G01*
X98263569Y-36588393D01*
X98294890Y-36605134D01*
X98322339Y-36627661D01*
X98344866Y-36655110D01*
X98361607Y-36686431D01*
X98371915Y-36720409D01*
X98376000Y-36761890D01*
X98376000Y-37438110D01*
X98371915Y-37479591D01*
X98361607Y-37513569D01*
X98344866Y-37544890D01*
X98322339Y-37572339D01*
X98294890Y-37594866D01*
X98263569Y-37611607D01*
X98229591Y-37621915D01*
X98188110Y-37626000D01*
X97586890Y-37626000D01*
X97545409Y-37621915D01*
X97511431Y-37611607D01*
X97480110Y-37594866D01*
X97452661Y-37572339D01*
X97430134Y-37544890D01*
X97413393Y-37513569D01*
X97403085Y-37479591D01*
X97399000Y-37438110D01*
X97399000Y-36761890D01*
X97403085Y-36720409D01*
X97413393Y-36686431D01*
X97430134Y-36655110D01*
X97452661Y-36627661D01*
X97480110Y-36605134D01*
X97511431Y-36588393D01*
X97545409Y-36578085D01*
X97586890Y-36574000D01*
X98188110Y-36574000D01*
X98229591Y-36578085D01*
X98229591Y-36578085D01*
G37*
G36*
X96654591Y-36578085D02*
G01*
X96688569Y-36588393D01*
X96719890Y-36605134D01*
X96747339Y-36627661D01*
X96769866Y-36655110D01*
X96786607Y-36686431D01*
X96796915Y-36720409D01*
X96801000Y-36761890D01*
X96801000Y-37438110D01*
X96796915Y-37479591D01*
X96786607Y-37513569D01*
X96769866Y-37544890D01*
X96747339Y-37572339D01*
X96719890Y-37594866D01*
X96688569Y-37611607D01*
X96654591Y-37621915D01*
X96613110Y-37626000D01*
X96011890Y-37626000D01*
X95970409Y-37621915D01*
X95936431Y-37611607D01*
X95905110Y-37594866D01*
X95877661Y-37572339D01*
X95855134Y-37544890D01*
X95838393Y-37513569D01*
X95828085Y-37479591D01*
X95824000Y-37438110D01*
X95824000Y-36761890D01*
X95828085Y-36720409D01*
X95838393Y-36686431D01*
X95855134Y-36655110D01*
X95877661Y-36627661D01*
X95905110Y-36605134D01*
X95936431Y-36588393D01*
X95970409Y-36578085D01*
X96011890Y-36574000D01*
X96613110Y-36574000D01*
X96654591Y-36578085D01*
X96654591Y-36578085D01*
G37*
G36*
X118597642Y-35805781D02*
G01*
X118743414Y-35866162D01*
X118743416Y-35866163D01*
X118874608Y-35953822D01*
X118986178Y-36065392D01*
X119073837Y-36196584D01*
X119073838Y-36196586D01*
X119134219Y-36342358D01*
X119165000Y-36497107D01*
X119165000Y-36654893D01*
X119134219Y-36809642D01*
X119117709Y-36849500D01*
X119073837Y-36955416D01*
X118986178Y-37086608D01*
X118874608Y-37198178D01*
X118743416Y-37285837D01*
X118743415Y-37285838D01*
X118743414Y-37285838D01*
X118597642Y-37346219D01*
X118442893Y-37377000D01*
X118285107Y-37377000D01*
X118130358Y-37346219D01*
X117984586Y-37285838D01*
X117984585Y-37285838D01*
X117984584Y-37285837D01*
X117853392Y-37198178D01*
X117741822Y-37086608D01*
X117654163Y-36955416D01*
X117610291Y-36849500D01*
X117593781Y-36809642D01*
X117563000Y-36654893D01*
X117563000Y-36497107D01*
X117593781Y-36342358D01*
X117654162Y-36196586D01*
X117654163Y-36196584D01*
X117741822Y-36065392D01*
X117853392Y-35953822D01*
X117984584Y-35866163D01*
X117984586Y-35866162D01*
X118130358Y-35805781D01*
X118285107Y-35775000D01*
X118442893Y-35775000D01*
X118597642Y-35805781D01*
X118597642Y-35805781D01*
G37*
G36*
X90401000Y-37301000D02*
G01*
X88799000Y-37301000D01*
X88799000Y-35699000D01*
X90401000Y-35699000D01*
X90401000Y-37301000D01*
X90401000Y-37301000D01*
G37*
G36*
X127474760Y-33641077D02*
G01*
X127742871Y-33694408D01*
X128047883Y-33820748D01*
X128322387Y-34004166D01*
X128555834Y-34237613D01*
X128739252Y-34512117D01*
X128865592Y-34817129D01*
X128865592Y-34817130D01*
X128930000Y-35140927D01*
X128930000Y-35471073D01*
X128903094Y-35606335D01*
X128865592Y-35794871D01*
X128739252Y-36099883D01*
X128555834Y-36374387D01*
X128322387Y-36607834D01*
X128047883Y-36791252D01*
X127742871Y-36917592D01*
X127580971Y-36949796D01*
X127419073Y-36982000D01*
X127088927Y-36982000D01*
X126765129Y-36917592D01*
X126460117Y-36791252D01*
X126185613Y-36607834D01*
X125952166Y-36374387D01*
X125768748Y-36099883D01*
X125642408Y-35794871D01*
X125604906Y-35606335D01*
X125578000Y-35471073D01*
X125578000Y-35140927D01*
X125642408Y-34817130D01*
X125642408Y-34817129D01*
X125768748Y-34512117D01*
X125952166Y-34237613D01*
X126185613Y-34004166D01*
X126460117Y-33820748D01*
X126765129Y-33694408D01*
X127033240Y-33641077D01*
X127088927Y-33630000D01*
X127419073Y-33630000D01*
X127474760Y-33641077D01*
X127474760Y-33641077D01*
G37*
G36*
X83496047Y-33570107D02*
G01*
X83738871Y-33618408D01*
X84043883Y-33744748D01*
X84318387Y-33928166D01*
X84551834Y-34161613D01*
X84735252Y-34436117D01*
X84861592Y-34741129D01*
X84926000Y-35064928D01*
X84926000Y-35395072D01*
X84861592Y-35718871D01*
X84735252Y-36023883D01*
X84551834Y-36298387D01*
X84318387Y-36531834D01*
X84043883Y-36715252D01*
X83738871Y-36841592D01*
X83415073Y-36906000D01*
X83084927Y-36906000D01*
X82761129Y-36841592D01*
X82456117Y-36715252D01*
X82181613Y-36531834D01*
X81948166Y-36298387D01*
X81764748Y-36023883D01*
X81638408Y-35718871D01*
X81574000Y-35395072D01*
X81574000Y-35064928D01*
X81638408Y-34741129D01*
X81764748Y-34436117D01*
X81948166Y-34161613D01*
X82181613Y-33928166D01*
X82456117Y-33744748D01*
X82761129Y-33618408D01*
X83003953Y-33570107D01*
X83084927Y-33554000D01*
X83415073Y-33554000D01*
X83496047Y-33570107D01*
X83496047Y-33570107D01*
G37*
G36*
X96561000Y-35961000D02*
G01*
X95159000Y-35961000D01*
X95159000Y-34259000D01*
X96561000Y-34259000D01*
X96561000Y-35961000D01*
X96561000Y-35961000D01*
G37*
G36*
X98561000Y-35961000D02*
G01*
X97159000Y-35961000D01*
X97159000Y-34259000D01*
X98561000Y-34259000D01*
X98561000Y-35961000D01*
X98561000Y-35961000D01*
G37*
G36*
X130606585Y-31729802D02*
G01*
X130756410Y-31759604D01*
X131038674Y-31876521D01*
X131292705Y-32046259D01*
X131508741Y-32262295D01*
X131678479Y-32516326D01*
X131795396Y-32798590D01*
X131825198Y-32948415D01*
X131839883Y-33022239D01*
X131855000Y-33098240D01*
X131855000Y-33403760D01*
X131795396Y-33703410D01*
X131678479Y-33985674D01*
X131508741Y-34239705D01*
X131292705Y-34455741D01*
X131038674Y-34625479D01*
X130756410Y-34742396D01*
X130684750Y-34756650D01*
X130456761Y-34802000D01*
X130151239Y-34802000D01*
X129923250Y-34756650D01*
X129851590Y-34742396D01*
X129569326Y-34625479D01*
X129315295Y-34455741D01*
X129099259Y-34239705D01*
X128929521Y-33985674D01*
X128812604Y-33703410D01*
X128753000Y-33403760D01*
X128753000Y-33098240D01*
X128768118Y-33022239D01*
X128782802Y-32948415D01*
X128812604Y-32798590D01*
X128929521Y-32516326D01*
X129099259Y-32262295D01*
X129315295Y-32046259D01*
X129569326Y-31876521D01*
X129851590Y-31759604D01*
X130001415Y-31729802D01*
X130151239Y-31700000D01*
X130456761Y-31700000D01*
X130606585Y-31729802D01*
X130606585Y-31729802D01*
G37*
G36*
X80502585Y-31653802D02*
G01*
X80652410Y-31683604D01*
X80934674Y-31800521D01*
X81188705Y-31970259D01*
X81404741Y-32186295D01*
X81574479Y-32440326D01*
X81691396Y-32722590D01*
X81708990Y-32811040D01*
X81751000Y-33022239D01*
X81751000Y-33327761D01*
X81721198Y-33477585D01*
X81691396Y-33627410D01*
X81574479Y-33909674D01*
X81404741Y-34163705D01*
X81188705Y-34379741D01*
X80934674Y-34549479D01*
X80652410Y-34666396D01*
X80545071Y-34687747D01*
X80352761Y-34726000D01*
X80047239Y-34726000D01*
X79854929Y-34687747D01*
X79747590Y-34666396D01*
X79465326Y-34549479D01*
X79211295Y-34379741D01*
X78995259Y-34163705D01*
X78825521Y-33909674D01*
X78708604Y-33627410D01*
X78678802Y-33477585D01*
X78649000Y-33327761D01*
X78649000Y-33022239D01*
X78691010Y-32811040D01*
X78708604Y-32722590D01*
X78825521Y-32440326D01*
X78995259Y-32186295D01*
X79211295Y-31970259D01*
X79465326Y-31800521D01*
X79747590Y-31683604D01*
X79897415Y-31653802D01*
X80047239Y-31624000D01*
X80352761Y-31624000D01*
X80502585Y-31653802D01*
X80502585Y-31653802D01*
G37*
G36*
X98561000Y-32661000D02*
G01*
X97159000Y-32661000D01*
X97159000Y-30959000D01*
X98561000Y-30959000D01*
X98561000Y-32661000D01*
X98561000Y-32661000D01*
G37*
G36*
X96561000Y-32661000D02*
G01*
X95159000Y-32661000D01*
X95159000Y-30959000D01*
X96561000Y-30959000D01*
X96561000Y-32661000D01*
X96561000Y-32661000D01*
G37*
G36*
X99979591Y-30203085D02*
G01*
X100013569Y-30213393D01*
X100044890Y-30230134D01*
X100072339Y-30252661D01*
X100094866Y-30280110D01*
X100111607Y-30311431D01*
X100121915Y-30345409D01*
X100126000Y-30386890D01*
X100126000Y-30988110D01*
X100121915Y-31029591D01*
X100111607Y-31063569D01*
X100094866Y-31094890D01*
X100072339Y-31122339D01*
X100044890Y-31144866D01*
X100013569Y-31161607D01*
X99979591Y-31171915D01*
X99938110Y-31176000D01*
X99261890Y-31176000D01*
X99220409Y-31171915D01*
X99186431Y-31161607D01*
X99155110Y-31144866D01*
X99127661Y-31122339D01*
X99105134Y-31094890D01*
X99088393Y-31063569D01*
X99078085Y-31029591D01*
X99074000Y-30988110D01*
X99074000Y-30386890D01*
X99078085Y-30345409D01*
X99088393Y-30311431D01*
X99105134Y-30280110D01*
X99127661Y-30252661D01*
X99155110Y-30230134D01*
X99186431Y-30213393D01*
X99220409Y-30203085D01*
X99261890Y-30199000D01*
X99938110Y-30199000D01*
X99979591Y-30203085D01*
X99979591Y-30203085D01*
G37*
G36*
X112379591Y-30103085D02*
G01*
X112413569Y-30113393D01*
X112444890Y-30130134D01*
X112472339Y-30152661D01*
X112494866Y-30180110D01*
X112511607Y-30211431D01*
X112521915Y-30245409D01*
X112526000Y-30286890D01*
X112526000Y-30888110D01*
X112521915Y-30929591D01*
X112511607Y-30963569D01*
X112494866Y-30994890D01*
X112472339Y-31022339D01*
X112444890Y-31044866D01*
X112413569Y-31061607D01*
X112379591Y-31071915D01*
X112338110Y-31076000D01*
X111661890Y-31076000D01*
X111620409Y-31071915D01*
X111586431Y-31061607D01*
X111555110Y-31044866D01*
X111527661Y-31022339D01*
X111505134Y-30994890D01*
X111488393Y-30963569D01*
X111478085Y-30929591D01*
X111474000Y-30888110D01*
X111474000Y-30286890D01*
X111478085Y-30245409D01*
X111488393Y-30211431D01*
X111505134Y-30180110D01*
X111527661Y-30152661D01*
X111555110Y-30130134D01*
X111586431Y-30113393D01*
X111620409Y-30103085D01*
X111661890Y-30099000D01*
X112338110Y-30099000D01*
X112379591Y-30103085D01*
X112379591Y-30103085D01*
G37*
G36*
X102320295Y-29200323D02*
G01*
X102327309Y-29202451D01*
X102341077Y-29209810D01*
X102363716Y-29219187D01*
X102387749Y-29223967D01*
X102412253Y-29223967D01*
X102436286Y-29219186D01*
X102458923Y-29209810D01*
X102472691Y-29202451D01*
X102479705Y-29200323D01*
X102493140Y-29199000D01*
X102806860Y-29199000D01*
X102820295Y-29200323D01*
X102827309Y-29202451D01*
X102841077Y-29209810D01*
X102863716Y-29219187D01*
X102887749Y-29223967D01*
X102912253Y-29223967D01*
X102936286Y-29219186D01*
X102958923Y-29209810D01*
X102972691Y-29202451D01*
X102979705Y-29200323D01*
X102993140Y-29199000D01*
X103306860Y-29199000D01*
X103320295Y-29200323D01*
X103327309Y-29202451D01*
X103341077Y-29209810D01*
X103363716Y-29219187D01*
X103387749Y-29223967D01*
X103412253Y-29223967D01*
X103436286Y-29219186D01*
X103458923Y-29209810D01*
X103472691Y-29202451D01*
X103479705Y-29200323D01*
X103493140Y-29199000D01*
X103806860Y-29199000D01*
X103820295Y-29200323D01*
X103827309Y-29202451D01*
X103841077Y-29209810D01*
X103863716Y-29219187D01*
X103887749Y-29223967D01*
X103912253Y-29223967D01*
X103936286Y-29219186D01*
X103958923Y-29209810D01*
X103972691Y-29202451D01*
X103979705Y-29200323D01*
X103993140Y-29199000D01*
X104306860Y-29199000D01*
X104320295Y-29200323D01*
X104327309Y-29202451D01*
X104341077Y-29209810D01*
X104363716Y-29219187D01*
X104387749Y-29223967D01*
X104412253Y-29223967D01*
X104436286Y-29219186D01*
X104458923Y-29209810D01*
X104472691Y-29202451D01*
X104479705Y-29200323D01*
X104493140Y-29199000D01*
X104806860Y-29199000D01*
X104820295Y-29200323D01*
X104827309Y-29202451D01*
X104841077Y-29209810D01*
X104863716Y-29219187D01*
X104887749Y-29223967D01*
X104912253Y-29223967D01*
X104936286Y-29219186D01*
X104958923Y-29209810D01*
X104972691Y-29202451D01*
X104979705Y-29200323D01*
X104993140Y-29199000D01*
X105306860Y-29199000D01*
X105320295Y-29200323D01*
X105327309Y-29202451D01*
X105341077Y-29209810D01*
X105363716Y-29219187D01*
X105387749Y-29223967D01*
X105412253Y-29223967D01*
X105436286Y-29219186D01*
X105458923Y-29209810D01*
X105472691Y-29202451D01*
X105479705Y-29200323D01*
X105493140Y-29199000D01*
X105806860Y-29199000D01*
X105820295Y-29200323D01*
X105827309Y-29202451D01*
X105841077Y-29209810D01*
X105863716Y-29219187D01*
X105887749Y-29223967D01*
X105912253Y-29223967D01*
X105936286Y-29219186D01*
X105958923Y-29209810D01*
X105972691Y-29202451D01*
X105979705Y-29200323D01*
X105993140Y-29199000D01*
X106306860Y-29199000D01*
X106320295Y-29200323D01*
X106327309Y-29202451D01*
X106341077Y-29209810D01*
X106363716Y-29219187D01*
X106387749Y-29223967D01*
X106412253Y-29223967D01*
X106436286Y-29219186D01*
X106458923Y-29209810D01*
X106472691Y-29202451D01*
X106479705Y-29200323D01*
X106493140Y-29199000D01*
X106806860Y-29199000D01*
X106820295Y-29200323D01*
X106827309Y-29202451D01*
X106841077Y-29209810D01*
X106863716Y-29219187D01*
X106887749Y-29223967D01*
X106912253Y-29223967D01*
X106936286Y-29219186D01*
X106958923Y-29209810D01*
X106972691Y-29202451D01*
X106979705Y-29200323D01*
X106993140Y-29199000D01*
X107306860Y-29199000D01*
X107320295Y-29200323D01*
X107327309Y-29202451D01*
X107341077Y-29209810D01*
X107363716Y-29219187D01*
X107387749Y-29223967D01*
X107412253Y-29223967D01*
X107436286Y-29219186D01*
X107458923Y-29209810D01*
X107472691Y-29202451D01*
X107479705Y-29200323D01*
X107493140Y-29199000D01*
X107806860Y-29199000D01*
X107820295Y-29200323D01*
X107827309Y-29202451D01*
X107841077Y-29209810D01*
X107863716Y-29219187D01*
X107887749Y-29223967D01*
X107912253Y-29223967D01*
X107936286Y-29219186D01*
X107958923Y-29209810D01*
X107972691Y-29202451D01*
X107979705Y-29200323D01*
X107993140Y-29199000D01*
X108306860Y-29199000D01*
X108320295Y-29200323D01*
X108327309Y-29202451D01*
X108341077Y-29209810D01*
X108363716Y-29219187D01*
X108387749Y-29223967D01*
X108412253Y-29223967D01*
X108436286Y-29219186D01*
X108458923Y-29209810D01*
X108472691Y-29202451D01*
X108479705Y-29200323D01*
X108493140Y-29199000D01*
X108806860Y-29199000D01*
X108820295Y-29200323D01*
X108827309Y-29202451D01*
X108841077Y-29209810D01*
X108863716Y-29219187D01*
X108887749Y-29223967D01*
X108912253Y-29223967D01*
X108936286Y-29219186D01*
X108958923Y-29209810D01*
X108972691Y-29202451D01*
X108979705Y-29200323D01*
X108993140Y-29199000D01*
X109306860Y-29199000D01*
X109320295Y-29200323D01*
X109327309Y-29202451D01*
X109341077Y-29209810D01*
X109363716Y-29219187D01*
X109387749Y-29223967D01*
X109412253Y-29223967D01*
X109436286Y-29219186D01*
X109458923Y-29209810D01*
X109472691Y-29202451D01*
X109479705Y-29200323D01*
X109493140Y-29199000D01*
X109806860Y-29199000D01*
X109820295Y-29200323D01*
X109827310Y-29202451D01*
X109833776Y-29205908D01*
X109839442Y-29210558D01*
X109844092Y-29216224D01*
X109847549Y-29222690D01*
X109849677Y-29229705D01*
X109851000Y-29243140D01*
X109851000Y-30806860D01*
X109849677Y-30820295D01*
X109847549Y-30827310D01*
X109844092Y-30833776D01*
X109839442Y-30839442D01*
X109833776Y-30844092D01*
X109827310Y-30847549D01*
X109820295Y-30849677D01*
X109806860Y-30851000D01*
X109493140Y-30851000D01*
X109479705Y-30849677D01*
X109472691Y-30847549D01*
X109458923Y-30840190D01*
X109436284Y-30830813D01*
X109412251Y-30826033D01*
X109387747Y-30826033D01*
X109363714Y-30830814D01*
X109341077Y-30840190D01*
X109327309Y-30847549D01*
X109320295Y-30849677D01*
X109306860Y-30851000D01*
X108993140Y-30851000D01*
X108979705Y-30849677D01*
X108972691Y-30847549D01*
X108958923Y-30840190D01*
X108936284Y-30830813D01*
X108912251Y-30826033D01*
X108887747Y-30826033D01*
X108863714Y-30830814D01*
X108841077Y-30840190D01*
X108827309Y-30847549D01*
X108820295Y-30849677D01*
X108806860Y-30851000D01*
X108493140Y-30851000D01*
X108479705Y-30849677D01*
X108472691Y-30847549D01*
X108458923Y-30840190D01*
X108436284Y-30830813D01*
X108412251Y-30826033D01*
X108387747Y-30826033D01*
X108363714Y-30830814D01*
X108341077Y-30840190D01*
X108327309Y-30847549D01*
X108320295Y-30849677D01*
X108306860Y-30851000D01*
X107993140Y-30851000D01*
X107979705Y-30849677D01*
X107972691Y-30847549D01*
X107958923Y-30840190D01*
X107936284Y-30830813D01*
X107912251Y-30826033D01*
X107887747Y-30826033D01*
X107863714Y-30830814D01*
X107841077Y-30840190D01*
X107827309Y-30847549D01*
X107820295Y-30849677D01*
X107806860Y-30851000D01*
X107493140Y-30851000D01*
X107479705Y-30849677D01*
X107472691Y-30847549D01*
X107458923Y-30840190D01*
X107436284Y-30830813D01*
X107412251Y-30826033D01*
X107387747Y-30826033D01*
X107363714Y-30830814D01*
X107341077Y-30840190D01*
X107327309Y-30847549D01*
X107320295Y-30849677D01*
X107306860Y-30851000D01*
X106993140Y-30851000D01*
X106979705Y-30849677D01*
X106972691Y-30847549D01*
X106958923Y-30840190D01*
X106936284Y-30830813D01*
X106912251Y-30826033D01*
X106887747Y-30826033D01*
X106863714Y-30830814D01*
X106841077Y-30840190D01*
X106827309Y-30847549D01*
X106820295Y-30849677D01*
X106806860Y-30851000D01*
X106493140Y-30851000D01*
X106479705Y-30849677D01*
X106472691Y-30847549D01*
X106458923Y-30840190D01*
X106436284Y-30830813D01*
X106412251Y-30826033D01*
X106387747Y-30826033D01*
X106363714Y-30830814D01*
X106341077Y-30840190D01*
X106327309Y-30847549D01*
X106320295Y-30849677D01*
X106306860Y-30851000D01*
X105993140Y-30851000D01*
X105979705Y-30849677D01*
X105972691Y-30847549D01*
X105958923Y-30840190D01*
X105936284Y-30830813D01*
X105912251Y-30826033D01*
X105887747Y-30826033D01*
X105863714Y-30830814D01*
X105841077Y-30840190D01*
X105827309Y-30847549D01*
X105820295Y-30849677D01*
X105806860Y-30851000D01*
X105493140Y-30851000D01*
X105479705Y-30849677D01*
X105472691Y-30847549D01*
X105458923Y-30840190D01*
X105436284Y-30830813D01*
X105412251Y-30826033D01*
X105387747Y-30826033D01*
X105363714Y-30830814D01*
X105341077Y-30840190D01*
X105327309Y-30847549D01*
X105320295Y-30849677D01*
X105306860Y-30851000D01*
X104993140Y-30851000D01*
X104979705Y-30849677D01*
X104972691Y-30847549D01*
X104958923Y-30840190D01*
X104936284Y-30830813D01*
X104912251Y-30826033D01*
X104887747Y-30826033D01*
X104863714Y-30830814D01*
X104841077Y-30840190D01*
X104827309Y-30847549D01*
X104820295Y-30849677D01*
X104806860Y-30851000D01*
X104493140Y-30851000D01*
X104479705Y-30849677D01*
X104472691Y-30847549D01*
X104458923Y-30840190D01*
X104436284Y-30830813D01*
X104412251Y-30826033D01*
X104387747Y-30826033D01*
X104363714Y-30830814D01*
X104341077Y-30840190D01*
X104327309Y-30847549D01*
X104320295Y-30849677D01*
X104306860Y-30851000D01*
X103993140Y-30851000D01*
X103979705Y-30849677D01*
X103972691Y-30847549D01*
X103958923Y-30840190D01*
X103936284Y-30830813D01*
X103912251Y-30826033D01*
X103887747Y-30826033D01*
X103863714Y-30830814D01*
X103841077Y-30840190D01*
X103827309Y-30847549D01*
X103820295Y-30849677D01*
X103806860Y-30851000D01*
X103493140Y-30851000D01*
X103479705Y-30849677D01*
X103472691Y-30847549D01*
X103458923Y-30840190D01*
X103436284Y-30830813D01*
X103412251Y-30826033D01*
X103387747Y-30826033D01*
X103363714Y-30830814D01*
X103341077Y-30840190D01*
X103327309Y-30847549D01*
X103320295Y-30849677D01*
X103306860Y-30851000D01*
X102993140Y-30851000D01*
X102979705Y-30849677D01*
X102972691Y-30847549D01*
X102958923Y-30840190D01*
X102936284Y-30830813D01*
X102912251Y-30826033D01*
X102887747Y-30826033D01*
X102863714Y-30830814D01*
X102841077Y-30840190D01*
X102827309Y-30847549D01*
X102820295Y-30849677D01*
X102806860Y-30851000D01*
X102493140Y-30851000D01*
X102479705Y-30849677D01*
X102472691Y-30847549D01*
X102458923Y-30840190D01*
X102436284Y-30830813D01*
X102412251Y-30826033D01*
X102387747Y-30826033D01*
X102363714Y-30830814D01*
X102341077Y-30840190D01*
X102327309Y-30847549D01*
X102320295Y-30849677D01*
X102306860Y-30851000D01*
X101993140Y-30851000D01*
X101979705Y-30849677D01*
X101972690Y-30847549D01*
X101966224Y-30844092D01*
X101960558Y-30839442D01*
X101955908Y-30833776D01*
X101952451Y-30827310D01*
X101950323Y-30820295D01*
X101949000Y-30806860D01*
X101949000Y-29243140D01*
X101950323Y-29229705D01*
X101952451Y-29222690D01*
X101955908Y-29216224D01*
X101960558Y-29210558D01*
X101966224Y-29205908D01*
X101972690Y-29202451D01*
X101979705Y-29200323D01*
X101993140Y-29199000D01*
X102306860Y-29199000D01*
X102320295Y-29200323D01*
X102320295Y-29200323D01*
G37*
G36*
X98129591Y-29308085D02*
G01*
X98163569Y-29318393D01*
X98194890Y-29335134D01*
X98222339Y-29357661D01*
X98244866Y-29385110D01*
X98261607Y-29416431D01*
X98271915Y-29450409D01*
X98276000Y-29491890D01*
X98276000Y-30168110D01*
X98271915Y-30209591D01*
X98261607Y-30243569D01*
X98244866Y-30274890D01*
X98222339Y-30302339D01*
X98194890Y-30324866D01*
X98163569Y-30341607D01*
X98129591Y-30351915D01*
X98088110Y-30356000D01*
X97486890Y-30356000D01*
X97445409Y-30351915D01*
X97411431Y-30341607D01*
X97380110Y-30324866D01*
X97352661Y-30302339D01*
X97330134Y-30274890D01*
X97313393Y-30243569D01*
X97303085Y-30209591D01*
X97299000Y-30168110D01*
X97299000Y-29491890D01*
X97303085Y-29450409D01*
X97313393Y-29416431D01*
X97330134Y-29385110D01*
X97352661Y-29357661D01*
X97380110Y-29335134D01*
X97411431Y-29318393D01*
X97445409Y-29308085D01*
X97486890Y-29304000D01*
X98088110Y-29304000D01*
X98129591Y-29308085D01*
X98129591Y-29308085D01*
G37*
G36*
X96554591Y-29308085D02*
G01*
X96588569Y-29318393D01*
X96619890Y-29335134D01*
X96647339Y-29357661D01*
X96669866Y-29385110D01*
X96686607Y-29416431D01*
X96696915Y-29450409D01*
X96701000Y-29491890D01*
X96701000Y-30168110D01*
X96696915Y-30209591D01*
X96686607Y-30243569D01*
X96669866Y-30274890D01*
X96647339Y-30302339D01*
X96619890Y-30324866D01*
X96588569Y-30341607D01*
X96554591Y-30351915D01*
X96513110Y-30356000D01*
X95911890Y-30356000D01*
X95870409Y-30351915D01*
X95836431Y-30341607D01*
X95805110Y-30324866D01*
X95777661Y-30302339D01*
X95755134Y-30274890D01*
X95738393Y-30243569D01*
X95728085Y-30209591D01*
X95724000Y-30168110D01*
X95724000Y-29491890D01*
X95728085Y-29450409D01*
X95738393Y-29416431D01*
X95755134Y-29385110D01*
X95777661Y-29357661D01*
X95805110Y-29335134D01*
X95836431Y-29318393D01*
X95870409Y-29308085D01*
X95911890Y-29304000D01*
X96513110Y-29304000D01*
X96554591Y-29308085D01*
X96554591Y-29308085D01*
G37*
G36*
X99979591Y-28628085D02*
G01*
X100013569Y-28638393D01*
X100044890Y-28655134D01*
X100072339Y-28677661D01*
X100094866Y-28705110D01*
X100111607Y-28736431D01*
X100121915Y-28770409D01*
X100126000Y-28811890D01*
X100126000Y-29413110D01*
X100121915Y-29454591D01*
X100111607Y-29488569D01*
X100094866Y-29519890D01*
X100072339Y-29547339D01*
X100044890Y-29569866D01*
X100013569Y-29586607D01*
X99979591Y-29596915D01*
X99938110Y-29601000D01*
X99261890Y-29601000D01*
X99220409Y-29596915D01*
X99186431Y-29586607D01*
X99155110Y-29569866D01*
X99127661Y-29547339D01*
X99105134Y-29519890D01*
X99088393Y-29488569D01*
X99078085Y-29454591D01*
X99074000Y-29413110D01*
X99074000Y-28811890D01*
X99078085Y-28770409D01*
X99088393Y-28736431D01*
X99105134Y-28705110D01*
X99127661Y-28677661D01*
X99155110Y-28655134D01*
X99186431Y-28638393D01*
X99220409Y-28628085D01*
X99261890Y-28624000D01*
X99938110Y-28624000D01*
X99979591Y-28628085D01*
X99979591Y-28628085D01*
G37*
G36*
X80510443Y-27785519D02*
G01*
X80576627Y-27792037D01*
X80746466Y-27843557D01*
X80902991Y-27927222D01*
X80938729Y-27956552D01*
X81040186Y-28039814D01*
X81123448Y-28141271D01*
X81152778Y-28177009D01*
X81236443Y-28333534D01*
X81287963Y-28503373D01*
X81305359Y-28680000D01*
X81287963Y-28856627D01*
X81236443Y-29026466D01*
X81152778Y-29182991D01*
X81138554Y-29200323D01*
X81040186Y-29320186D01*
X80952133Y-29392448D01*
X80902991Y-29432778D01*
X80746466Y-29516443D01*
X80576627Y-29567963D01*
X80510442Y-29574482D01*
X80444260Y-29581000D01*
X80355740Y-29581000D01*
X80289558Y-29574482D01*
X80223373Y-29567963D01*
X80053534Y-29516443D01*
X79897009Y-29432778D01*
X79847867Y-29392448D01*
X79759814Y-29320186D01*
X79661446Y-29200323D01*
X79647222Y-29182991D01*
X79563557Y-29026466D01*
X79512037Y-28856627D01*
X79494641Y-28680000D01*
X79512037Y-28503373D01*
X79563557Y-28333534D01*
X79647222Y-28177009D01*
X79676552Y-28141271D01*
X79759814Y-28039814D01*
X79861271Y-27956552D01*
X79897009Y-27927222D01*
X80053534Y-27843557D01*
X80223373Y-27792037D01*
X80289557Y-27785519D01*
X80355740Y-27779000D01*
X80444260Y-27779000D01*
X80510443Y-27785519D01*
X80510443Y-27785519D01*
G37*
G36*
X112379591Y-28528085D02*
G01*
X112413569Y-28538393D01*
X112444890Y-28555134D01*
X112472339Y-28577661D01*
X112494866Y-28605110D01*
X112511607Y-28636431D01*
X112521915Y-28670409D01*
X112526000Y-28711890D01*
X112526000Y-29313110D01*
X112521915Y-29354591D01*
X112511607Y-29388569D01*
X112494866Y-29419890D01*
X112472339Y-29447339D01*
X112444890Y-29469866D01*
X112413569Y-29486607D01*
X112379591Y-29496915D01*
X112338110Y-29501000D01*
X111661890Y-29501000D01*
X111620409Y-29496915D01*
X111586431Y-29486607D01*
X111555110Y-29469866D01*
X111527661Y-29447339D01*
X111505134Y-29419890D01*
X111488393Y-29388569D01*
X111478085Y-29354591D01*
X111474000Y-29313110D01*
X111474000Y-28711890D01*
X111478085Y-28670409D01*
X111488393Y-28636431D01*
X111505134Y-28605110D01*
X111527661Y-28577661D01*
X111555110Y-28555134D01*
X111586431Y-28538393D01*
X111620409Y-28528085D01*
X111661890Y-28524000D01*
X112338110Y-28524000D01*
X112379591Y-28528085D01*
X112379591Y-28528085D01*
G37*
G36*
X95810442Y-25605518D02*
G01*
X95876627Y-25612037D01*
X96046466Y-25663557D01*
X96046468Y-25663558D01*
X96124728Y-25705389D01*
X96202991Y-25747222D01*
X96238729Y-25776552D01*
X96340186Y-25859814D01*
X96410773Y-25945826D01*
X96452778Y-25997009D01*
X96536443Y-26153534D01*
X96587963Y-26323373D01*
X96605359Y-26500000D01*
X96587963Y-26676627D01*
X96536443Y-26846466D01*
X96452778Y-27002991D01*
X96432284Y-27027963D01*
X96340186Y-27140186D01*
X96238729Y-27223448D01*
X96202991Y-27252778D01*
X96046466Y-27336443D01*
X95876627Y-27387963D01*
X95810443Y-27394481D01*
X95744260Y-27401000D01*
X95655740Y-27401000D01*
X95589557Y-27394481D01*
X95523373Y-27387963D01*
X95353534Y-27336443D01*
X95197009Y-27252778D01*
X95161271Y-27223448D01*
X95059814Y-27140186D01*
X94967716Y-27027963D01*
X94947222Y-27002991D01*
X94863557Y-26846466D01*
X94812037Y-26676627D01*
X94794641Y-26500000D01*
X94812037Y-26323373D01*
X94863557Y-26153534D01*
X94947222Y-25997009D01*
X94989227Y-25945826D01*
X95059814Y-25859814D01*
X95161271Y-25776552D01*
X95197009Y-25747222D01*
X95275272Y-25705389D01*
X95353532Y-25663558D01*
X95353534Y-25663557D01*
X95523373Y-25612037D01*
X95589557Y-25605519D01*
X95655740Y-25599000D01*
X95744260Y-25599000D01*
X95810442Y-25605518D01*
X95810442Y-25605518D01*
G37*
G36*
X98350442Y-25605518D02*
G01*
X98416627Y-25612037D01*
X98586466Y-25663557D01*
X98586468Y-25663558D01*
X98664728Y-25705389D01*
X98742991Y-25747222D01*
X98778729Y-25776552D01*
X98880186Y-25859814D01*
X98950773Y-25945826D01*
X98992778Y-25997009D01*
X99076443Y-26153534D01*
X99127963Y-26323373D01*
X99145359Y-26500000D01*
X99127963Y-26676627D01*
X99076443Y-26846466D01*
X98992778Y-27002991D01*
X98972284Y-27027963D01*
X98880186Y-27140186D01*
X98778729Y-27223448D01*
X98742991Y-27252778D01*
X98586466Y-27336443D01*
X98416627Y-27387963D01*
X98350443Y-27394481D01*
X98284260Y-27401000D01*
X98195740Y-27401000D01*
X98129557Y-27394481D01*
X98063373Y-27387963D01*
X97893534Y-27336443D01*
X97737009Y-27252778D01*
X97701271Y-27223448D01*
X97599814Y-27140186D01*
X97507716Y-27027963D01*
X97487222Y-27002991D01*
X97403557Y-26846466D01*
X97352037Y-26676627D01*
X97334641Y-26500000D01*
X97352037Y-26323373D01*
X97403557Y-26153534D01*
X97487222Y-25997009D01*
X97529227Y-25945826D01*
X97599814Y-25859814D01*
X97701271Y-25776552D01*
X97737009Y-25747222D01*
X97815272Y-25705389D01*
X97893532Y-25663558D01*
X97893534Y-25663557D01*
X98063373Y-25612037D01*
X98129557Y-25605519D01*
X98195740Y-25599000D01*
X98284260Y-25599000D01*
X98350442Y-25605518D01*
X98350442Y-25605518D01*
G37*
G36*
X103430442Y-25605518D02*
G01*
X103496627Y-25612037D01*
X103666466Y-25663557D01*
X103666468Y-25663558D01*
X103744728Y-25705389D01*
X103822991Y-25747222D01*
X103858729Y-25776552D01*
X103960186Y-25859814D01*
X104030773Y-25945826D01*
X104072778Y-25997009D01*
X104156443Y-26153534D01*
X104207963Y-26323373D01*
X104225359Y-26500000D01*
X104207963Y-26676627D01*
X104156443Y-26846466D01*
X104072778Y-27002991D01*
X104052284Y-27027963D01*
X103960186Y-27140186D01*
X103858729Y-27223448D01*
X103822991Y-27252778D01*
X103666466Y-27336443D01*
X103496627Y-27387963D01*
X103430443Y-27394481D01*
X103364260Y-27401000D01*
X103275740Y-27401000D01*
X103209557Y-27394481D01*
X103143373Y-27387963D01*
X102973534Y-27336443D01*
X102817009Y-27252778D01*
X102781271Y-27223448D01*
X102679814Y-27140186D01*
X102587716Y-27027963D01*
X102567222Y-27002991D01*
X102483557Y-26846466D01*
X102432037Y-26676627D01*
X102414641Y-26500000D01*
X102432037Y-26323373D01*
X102483557Y-26153534D01*
X102567222Y-25997009D01*
X102609227Y-25945826D01*
X102679814Y-25859814D01*
X102781271Y-25776552D01*
X102817009Y-25747222D01*
X102895272Y-25705389D01*
X102973532Y-25663558D01*
X102973534Y-25663557D01*
X103143373Y-25612037D01*
X103209557Y-25605519D01*
X103275740Y-25599000D01*
X103364260Y-25599000D01*
X103430442Y-25605518D01*
X103430442Y-25605518D01*
G37*
G36*
X100890442Y-25605518D02*
G01*
X100956627Y-25612037D01*
X101126466Y-25663557D01*
X101126468Y-25663558D01*
X101204728Y-25705389D01*
X101282991Y-25747222D01*
X101318729Y-25776552D01*
X101420186Y-25859814D01*
X101490773Y-25945826D01*
X101532778Y-25997009D01*
X101616443Y-26153534D01*
X101667963Y-26323373D01*
X101685359Y-26500000D01*
X101667963Y-26676627D01*
X101616443Y-26846466D01*
X101532778Y-27002991D01*
X101512284Y-27027963D01*
X101420186Y-27140186D01*
X101318729Y-27223448D01*
X101282991Y-27252778D01*
X101126466Y-27336443D01*
X100956627Y-27387963D01*
X100890443Y-27394481D01*
X100824260Y-27401000D01*
X100735740Y-27401000D01*
X100669557Y-27394481D01*
X100603373Y-27387963D01*
X100433534Y-27336443D01*
X100277009Y-27252778D01*
X100241271Y-27223448D01*
X100139814Y-27140186D01*
X100047716Y-27027963D01*
X100027222Y-27002991D01*
X99943557Y-26846466D01*
X99892037Y-26676627D01*
X99874641Y-26500000D01*
X99892037Y-26323373D01*
X99943557Y-26153534D01*
X100027222Y-25997009D01*
X100069227Y-25945826D01*
X100139814Y-25859814D01*
X100241271Y-25776552D01*
X100277009Y-25747222D01*
X100355272Y-25705389D01*
X100433532Y-25663558D01*
X100433534Y-25663557D01*
X100603373Y-25612037D01*
X100669557Y-25605519D01*
X100735740Y-25599000D01*
X100824260Y-25599000D01*
X100890442Y-25605518D01*
X100890442Y-25605518D01*
G37*
G36*
X80510443Y-25245519D02*
G01*
X80576627Y-25252037D01*
X80746466Y-25303557D01*
X80902991Y-25387222D01*
X80938729Y-25416552D01*
X81040186Y-25499814D01*
X81121585Y-25599000D01*
X81152778Y-25637009D01*
X81236443Y-25793534D01*
X81287963Y-25963373D01*
X81305359Y-26140000D01*
X81287963Y-26316627D01*
X81236443Y-26486466D01*
X81152778Y-26642991D01*
X81125175Y-26676625D01*
X81040186Y-26780186D01*
X80974472Y-26834115D01*
X80902991Y-26892778D01*
X80746466Y-26976443D01*
X80576627Y-27027963D01*
X80510442Y-27034482D01*
X80444260Y-27041000D01*
X80355740Y-27041000D01*
X80289558Y-27034482D01*
X80223373Y-27027963D01*
X80053534Y-26976443D01*
X79897009Y-26892778D01*
X79825528Y-26834115D01*
X79759814Y-26780186D01*
X79674825Y-26676625D01*
X79647222Y-26642991D01*
X79563557Y-26486466D01*
X79512037Y-26316627D01*
X79494641Y-26140000D01*
X79512037Y-25963373D01*
X79563557Y-25793534D01*
X79647222Y-25637009D01*
X79678415Y-25599000D01*
X79759814Y-25499814D01*
X79861271Y-25416552D01*
X79897009Y-25387222D01*
X80053534Y-25303557D01*
X80223373Y-25252037D01*
X80289557Y-25245519D01*
X80355740Y-25239000D01*
X80444260Y-25239000D01*
X80510443Y-25245519D01*
X80510443Y-25245519D01*
G37*
G36*
X108164499Y-25803445D02*
G01*
X108201995Y-25814820D01*
X108236554Y-25833292D01*
X108266847Y-25858153D01*
X108291708Y-25888446D01*
X108310180Y-25923005D01*
X108321555Y-25960501D01*
X108326000Y-26005638D01*
X108326000Y-26744362D01*
X108321555Y-26789499D01*
X108310180Y-26826995D01*
X108291708Y-26861554D01*
X108266847Y-26891847D01*
X108236554Y-26916708D01*
X108201995Y-26935180D01*
X108164499Y-26946555D01*
X108119362Y-26951000D01*
X107480638Y-26951000D01*
X107435501Y-26946555D01*
X107398005Y-26935180D01*
X107363446Y-26916708D01*
X107333153Y-26891847D01*
X107308292Y-26861554D01*
X107289820Y-26826995D01*
X107278445Y-26789499D01*
X107274000Y-26744362D01*
X107274000Y-26005638D01*
X107278445Y-25960501D01*
X107289820Y-25923005D01*
X107308292Y-25888446D01*
X107333153Y-25858153D01*
X107363446Y-25833292D01*
X107398005Y-25814820D01*
X107435501Y-25803445D01*
X107480638Y-25799000D01*
X108119362Y-25799000D01*
X108164499Y-25803445D01*
X108164499Y-25803445D01*
G37*
G36*
X115534468Y-24453565D02*
G01*
X115573138Y-24465296D01*
X115608777Y-24484346D01*
X115640017Y-24509983D01*
X115665654Y-24541223D01*
X115684704Y-24576862D01*
X115696435Y-24615532D01*
X115701000Y-24661888D01*
X115701000Y-25738112D01*
X115696435Y-25784468D01*
X115684704Y-25823138D01*
X115665654Y-25858777D01*
X115640017Y-25890017D01*
X115608777Y-25915654D01*
X115573138Y-25934704D01*
X115534468Y-25946435D01*
X115488112Y-25951000D01*
X114836888Y-25951000D01*
X114790532Y-25946435D01*
X114751862Y-25934704D01*
X114716223Y-25915654D01*
X114684983Y-25890017D01*
X114659346Y-25858777D01*
X114640296Y-25823138D01*
X114628565Y-25784468D01*
X114624000Y-25738112D01*
X114624000Y-24661888D01*
X114628565Y-24615532D01*
X114640296Y-24576862D01*
X114659346Y-24541223D01*
X114684983Y-24509983D01*
X114716223Y-24484346D01*
X114751862Y-24465296D01*
X114790532Y-24453565D01*
X114836888Y-24449000D01*
X115488112Y-24449000D01*
X115534468Y-24453565D01*
X115534468Y-24453565D01*
G37*
G36*
X117409468Y-24453565D02*
G01*
X117448138Y-24465296D01*
X117483777Y-24484346D01*
X117515017Y-24509983D01*
X117540654Y-24541223D01*
X117559704Y-24576862D01*
X117571435Y-24615532D01*
X117576000Y-24661888D01*
X117576000Y-25738112D01*
X117571435Y-25784468D01*
X117559704Y-25823138D01*
X117540654Y-25858777D01*
X117515017Y-25890017D01*
X117483777Y-25915654D01*
X117448138Y-25934704D01*
X117409468Y-25946435D01*
X117363112Y-25951000D01*
X116711888Y-25951000D01*
X116665532Y-25946435D01*
X116626862Y-25934704D01*
X116591223Y-25915654D01*
X116559983Y-25890017D01*
X116534346Y-25858777D01*
X116515296Y-25823138D01*
X116503565Y-25784468D01*
X116499000Y-25738112D01*
X116499000Y-24661888D01*
X116503565Y-24615532D01*
X116515296Y-24576862D01*
X116534346Y-24541223D01*
X116559983Y-24509983D01*
X116591223Y-24484346D01*
X116626862Y-24465296D01*
X116665532Y-24453565D01*
X116711888Y-24449000D01*
X117363112Y-24449000D01*
X117409468Y-24453565D01*
X117409468Y-24453565D01*
G37*
G36*
X111001000Y-25351000D02*
G01*
X109399000Y-25351000D01*
X109399000Y-24149000D01*
X111001000Y-24149000D01*
X111001000Y-25351000D01*
X111001000Y-25351000D01*
G37*
G36*
X114001000Y-25351000D02*
G01*
X112399000Y-25351000D01*
X112399000Y-24149000D01*
X114001000Y-24149000D01*
X114001000Y-25351000D01*
X114001000Y-25351000D01*
G37*
G36*
X108164499Y-24053445D02*
G01*
X108201995Y-24064820D01*
X108236554Y-24083292D01*
X108266847Y-24108153D01*
X108291708Y-24138446D01*
X108310180Y-24173005D01*
X108321555Y-24210501D01*
X108326000Y-24255638D01*
X108326000Y-24994362D01*
X108321555Y-25039499D01*
X108310180Y-25076995D01*
X108291708Y-25111554D01*
X108266847Y-25141847D01*
X108236554Y-25166708D01*
X108201995Y-25185180D01*
X108164499Y-25196555D01*
X108119362Y-25201000D01*
X107480638Y-25201000D01*
X107435501Y-25196555D01*
X107398005Y-25185180D01*
X107363446Y-25166708D01*
X107333153Y-25141847D01*
X107308292Y-25111554D01*
X107289820Y-25076995D01*
X107278445Y-25039499D01*
X107274000Y-24994362D01*
X107274000Y-24255638D01*
X107278445Y-24210501D01*
X107289820Y-24173005D01*
X107308292Y-24138446D01*
X107333153Y-24108153D01*
X107363446Y-24083292D01*
X107398005Y-24064820D01*
X107435501Y-24053445D01*
X107480638Y-24049000D01*
X108119362Y-24049000D01*
X108164499Y-24053445D01*
X108164499Y-24053445D01*
G37*
G36*
X104221000Y-24861000D02*
G01*
X102419000Y-24861000D01*
X102419000Y-23059000D01*
X104221000Y-23059000D01*
X104221000Y-24861000D01*
X104221000Y-24861000D01*
G37*
G36*
X100890442Y-23065518D02*
G01*
X100956627Y-23072037D01*
X101126466Y-23123557D01*
X101282991Y-23207222D01*
X101318729Y-23236552D01*
X101420186Y-23319814D01*
X101503448Y-23421271D01*
X101532778Y-23457009D01*
X101616443Y-23613534D01*
X101667963Y-23783373D01*
X101685359Y-23960000D01*
X101667963Y-24136627D01*
X101616443Y-24306466D01*
X101532778Y-24462991D01*
X101530886Y-24465296D01*
X101420186Y-24600186D01*
X101318729Y-24683448D01*
X101282991Y-24712778D01*
X101126466Y-24796443D01*
X100956627Y-24847963D01*
X100890442Y-24854482D01*
X100824260Y-24861000D01*
X100735740Y-24861000D01*
X100669558Y-24854482D01*
X100603373Y-24847963D01*
X100433534Y-24796443D01*
X100277009Y-24712778D01*
X100241271Y-24683448D01*
X100139814Y-24600186D01*
X100029114Y-24465296D01*
X100027222Y-24462991D01*
X99943557Y-24306466D01*
X99892037Y-24136627D01*
X99874641Y-23960000D01*
X99892037Y-23783373D01*
X99943557Y-23613534D01*
X100027222Y-23457009D01*
X100056552Y-23421271D01*
X100139814Y-23319814D01*
X100241271Y-23236552D01*
X100277009Y-23207222D01*
X100433534Y-23123557D01*
X100603373Y-23072037D01*
X100669558Y-23065518D01*
X100735740Y-23059000D01*
X100824260Y-23059000D01*
X100890442Y-23065518D01*
X100890442Y-23065518D01*
G37*
G36*
X98350442Y-23065518D02*
G01*
X98416627Y-23072037D01*
X98586466Y-23123557D01*
X98742991Y-23207222D01*
X98778729Y-23236552D01*
X98880186Y-23319814D01*
X98963448Y-23421271D01*
X98992778Y-23457009D01*
X99076443Y-23613534D01*
X99127963Y-23783373D01*
X99145359Y-23960000D01*
X99127963Y-24136627D01*
X99076443Y-24306466D01*
X98992778Y-24462991D01*
X98990886Y-24465296D01*
X98880186Y-24600186D01*
X98778729Y-24683448D01*
X98742991Y-24712778D01*
X98586466Y-24796443D01*
X98416627Y-24847963D01*
X98350442Y-24854482D01*
X98284260Y-24861000D01*
X98195740Y-24861000D01*
X98129558Y-24854482D01*
X98063373Y-24847963D01*
X97893534Y-24796443D01*
X97737009Y-24712778D01*
X97701271Y-24683448D01*
X97599814Y-24600186D01*
X97489114Y-24465296D01*
X97487222Y-24462991D01*
X97403557Y-24306466D01*
X97352037Y-24136627D01*
X97334641Y-23960000D01*
X97352037Y-23783373D01*
X97403557Y-23613534D01*
X97487222Y-23457009D01*
X97516552Y-23421271D01*
X97599814Y-23319814D01*
X97701271Y-23236552D01*
X97737009Y-23207222D01*
X97893534Y-23123557D01*
X98063373Y-23072037D01*
X98129558Y-23065518D01*
X98195740Y-23059000D01*
X98284260Y-23059000D01*
X98350442Y-23065518D01*
X98350442Y-23065518D01*
G37*
G36*
X95810442Y-23065518D02*
G01*
X95876627Y-23072037D01*
X96046466Y-23123557D01*
X96202991Y-23207222D01*
X96238729Y-23236552D01*
X96340186Y-23319814D01*
X96423448Y-23421271D01*
X96452778Y-23457009D01*
X96536443Y-23613534D01*
X96587963Y-23783373D01*
X96605359Y-23960000D01*
X96587963Y-24136627D01*
X96536443Y-24306466D01*
X96452778Y-24462991D01*
X96450886Y-24465296D01*
X96340186Y-24600186D01*
X96238729Y-24683448D01*
X96202991Y-24712778D01*
X96046466Y-24796443D01*
X95876627Y-24847963D01*
X95810442Y-24854482D01*
X95744260Y-24861000D01*
X95655740Y-24861000D01*
X95589558Y-24854482D01*
X95523373Y-24847963D01*
X95353534Y-24796443D01*
X95197009Y-24712778D01*
X95161271Y-24683448D01*
X95059814Y-24600186D01*
X94949114Y-24465296D01*
X94947222Y-24462991D01*
X94863557Y-24306466D01*
X94812037Y-24136627D01*
X94794641Y-23960000D01*
X94812037Y-23783373D01*
X94863557Y-23613534D01*
X94947222Y-23457009D01*
X94976552Y-23421271D01*
X95059814Y-23319814D01*
X95161271Y-23236552D01*
X95197009Y-23207222D01*
X95353534Y-23123557D01*
X95523373Y-23072037D01*
X95589558Y-23065518D01*
X95655740Y-23059000D01*
X95744260Y-23059000D01*
X95810442Y-23065518D01*
X95810442Y-23065518D01*
G37*
G36*
X81301000Y-24501000D02*
G01*
X79499000Y-24501000D01*
X79499000Y-22699000D01*
X81301000Y-22699000D01*
X81301000Y-24501000D01*
X81301000Y-24501000D01*
G37*
G36*
X117409468Y-22453565D02*
G01*
X117448138Y-22465296D01*
X117483777Y-22484346D01*
X117515017Y-22509983D01*
X117540654Y-22541223D01*
X117559704Y-22576862D01*
X117571435Y-22615532D01*
X117576000Y-22661888D01*
X117576000Y-23738112D01*
X117571435Y-23784468D01*
X117559704Y-23823138D01*
X117540654Y-23858777D01*
X117515017Y-23890017D01*
X117483777Y-23915654D01*
X117448138Y-23934704D01*
X117409468Y-23946435D01*
X117363112Y-23951000D01*
X116711888Y-23951000D01*
X116665532Y-23946435D01*
X116626862Y-23934704D01*
X116591223Y-23915654D01*
X116559983Y-23890017D01*
X116534346Y-23858777D01*
X116515296Y-23823138D01*
X116503565Y-23784468D01*
X116499000Y-23738112D01*
X116499000Y-22661888D01*
X116503565Y-22615532D01*
X116515296Y-22576862D01*
X116534346Y-22541223D01*
X116559983Y-22509983D01*
X116591223Y-22484346D01*
X116626862Y-22465296D01*
X116665532Y-22453565D01*
X116711888Y-22449000D01*
X117363112Y-22449000D01*
X117409468Y-22453565D01*
X117409468Y-22453565D01*
G37*
G36*
X115534468Y-22453565D02*
G01*
X115573138Y-22465296D01*
X115608777Y-22484346D01*
X115640017Y-22509983D01*
X115665654Y-22541223D01*
X115684704Y-22576862D01*
X115696435Y-22615532D01*
X115701000Y-22661888D01*
X115701000Y-23738112D01*
X115696435Y-23784468D01*
X115684704Y-23823138D01*
X115665654Y-23858777D01*
X115640017Y-23890017D01*
X115608777Y-23915654D01*
X115573138Y-23934704D01*
X115534468Y-23946435D01*
X115488112Y-23951000D01*
X114836888Y-23951000D01*
X114790532Y-23946435D01*
X114751862Y-23934704D01*
X114716223Y-23915654D01*
X114684983Y-23890017D01*
X114659346Y-23858777D01*
X114640296Y-23823138D01*
X114628565Y-23784468D01*
X114624000Y-23738112D01*
X114624000Y-22661888D01*
X114628565Y-22615532D01*
X114640296Y-22576862D01*
X114659346Y-22541223D01*
X114684983Y-22509983D01*
X114716223Y-22484346D01*
X114751862Y-22465296D01*
X114790532Y-22453565D01*
X114836888Y-22449000D01*
X115488112Y-22449000D01*
X115534468Y-22453565D01*
X115534468Y-22453565D01*
G37*
G36*
X121810442Y-22145518D02*
G01*
X121876627Y-22152037D01*
X122046466Y-22203557D01*
X122202991Y-22287222D01*
X122238729Y-22316552D01*
X122340186Y-22399814D01*
X122417791Y-22494377D01*
X122452778Y-22537009D01*
X122536443Y-22693534D01*
X122587963Y-22863373D01*
X122605359Y-23040000D01*
X122587963Y-23216627D01*
X122536443Y-23386466D01*
X122452778Y-23542991D01*
X122423448Y-23578729D01*
X122340186Y-23680186D01*
X122238729Y-23763448D01*
X122202991Y-23792778D01*
X122046466Y-23876443D01*
X121876627Y-23927963D01*
X121810442Y-23934482D01*
X121744260Y-23941000D01*
X121655740Y-23941000D01*
X121589558Y-23934482D01*
X121523373Y-23927963D01*
X121353534Y-23876443D01*
X121197009Y-23792778D01*
X121161271Y-23763448D01*
X121059814Y-23680186D01*
X120976552Y-23578729D01*
X120947222Y-23542991D01*
X120863557Y-23386466D01*
X120812037Y-23216627D01*
X120794641Y-23040000D01*
X120812037Y-22863373D01*
X120863557Y-22693534D01*
X120947222Y-22537009D01*
X120982209Y-22494377D01*
X121059814Y-22399814D01*
X121161271Y-22316552D01*
X121197009Y-22287222D01*
X121353534Y-22203557D01*
X121523373Y-22152037D01*
X121589557Y-22145519D01*
X121655740Y-22139000D01*
X121744260Y-22139000D01*
X121810442Y-22145518D01*
X121810442Y-22145518D01*
G37*
G36*
X111001000Y-23851000D02*
G01*
X109399000Y-23851000D01*
X109399000Y-22649000D01*
X111001000Y-22649000D01*
X111001000Y-23851000D01*
X111001000Y-23851000D01*
G37*
G36*
X114001000Y-23851000D02*
G01*
X112399000Y-23851000D01*
X112399000Y-22649000D01*
X114001000Y-22649000D01*
X114001000Y-23851000D01*
X114001000Y-23851000D01*
G37*
G36*
X113809468Y-20353565D02*
G01*
X113848138Y-20365296D01*
X113883777Y-20384346D01*
X113915017Y-20409983D01*
X113940654Y-20441223D01*
X113959704Y-20476862D01*
X113971435Y-20515532D01*
X113976000Y-20561888D01*
X113976000Y-21638112D01*
X113971435Y-21684468D01*
X113959704Y-21723138D01*
X113940654Y-21758777D01*
X113915017Y-21790017D01*
X113883777Y-21815654D01*
X113848138Y-21834704D01*
X113809468Y-21846435D01*
X113763112Y-21851000D01*
X113111888Y-21851000D01*
X113065532Y-21846435D01*
X113026862Y-21834704D01*
X112991223Y-21815654D01*
X112959983Y-21790017D01*
X112934346Y-21758777D01*
X112915296Y-21723138D01*
X112903565Y-21684468D01*
X112899000Y-21638112D01*
X112899000Y-20561888D01*
X112903565Y-20515532D01*
X112915296Y-20476862D01*
X112934346Y-20441223D01*
X112959983Y-20409983D01*
X112991223Y-20384346D01*
X113026862Y-20365296D01*
X113065532Y-20353565D01*
X113111888Y-20349000D01*
X113763112Y-20349000D01*
X113809468Y-20353565D01*
X113809468Y-20353565D01*
G37*
G36*
X111934468Y-20353565D02*
G01*
X111973138Y-20365296D01*
X112008777Y-20384346D01*
X112040017Y-20409983D01*
X112065654Y-20441223D01*
X112084704Y-20476862D01*
X112096435Y-20515532D01*
X112101000Y-20561888D01*
X112101000Y-21638112D01*
X112096435Y-21684468D01*
X112084704Y-21723138D01*
X112065654Y-21758777D01*
X112040017Y-21790017D01*
X112008777Y-21815654D01*
X111973138Y-21834704D01*
X111934468Y-21846435D01*
X111888112Y-21851000D01*
X111236888Y-21851000D01*
X111190532Y-21846435D01*
X111151862Y-21834704D01*
X111116223Y-21815654D01*
X111084983Y-21790017D01*
X111059346Y-21758777D01*
X111040296Y-21723138D01*
X111028565Y-21684468D01*
X111024000Y-21638112D01*
X111024000Y-20561888D01*
X111028565Y-20515532D01*
X111040296Y-20476862D01*
X111059346Y-20441223D01*
X111084983Y-20409983D01*
X111116223Y-20384346D01*
X111151862Y-20365296D01*
X111190532Y-20353565D01*
X111236888Y-20349000D01*
X111888112Y-20349000D01*
X111934468Y-20353565D01*
X111934468Y-20353565D01*
G37*
G36*
X85330442Y-19805518D02*
G01*
X85396627Y-19812037D01*
X85566466Y-19863557D01*
X85722991Y-19947222D01*
X85758729Y-19976552D01*
X85860186Y-20059814D01*
X85943448Y-20161271D01*
X85972778Y-20197009D01*
X86056443Y-20353534D01*
X86107963Y-20523373D01*
X86125359Y-20700000D01*
X86107963Y-20876627D01*
X86056443Y-21046466D01*
X85972778Y-21202991D01*
X85943448Y-21238729D01*
X85860186Y-21340186D01*
X85758729Y-21423448D01*
X85722991Y-21452778D01*
X85566466Y-21536443D01*
X85396627Y-21587963D01*
X85330443Y-21594481D01*
X85264260Y-21601000D01*
X85175740Y-21601000D01*
X85109558Y-21594482D01*
X85043373Y-21587963D01*
X84873534Y-21536443D01*
X84717009Y-21452778D01*
X84681271Y-21423448D01*
X84579814Y-21340186D01*
X84496552Y-21238729D01*
X84467222Y-21202991D01*
X84383557Y-21046466D01*
X84332037Y-20876627D01*
X84314641Y-20700000D01*
X84332037Y-20523373D01*
X84383557Y-20353534D01*
X84467222Y-20197009D01*
X84496552Y-20161271D01*
X84579814Y-20059814D01*
X84681271Y-19976552D01*
X84717009Y-19947222D01*
X84873534Y-19863557D01*
X85043373Y-19812037D01*
X85109557Y-19805519D01*
X85175740Y-19799000D01*
X85264260Y-19799000D01*
X85330442Y-19805518D01*
X85330442Y-19805518D01*
G37*
G36*
X87870442Y-19805518D02*
G01*
X87936627Y-19812037D01*
X88106466Y-19863557D01*
X88262991Y-19947222D01*
X88298729Y-19976552D01*
X88400186Y-20059814D01*
X88483448Y-20161271D01*
X88512778Y-20197009D01*
X88596443Y-20353534D01*
X88647963Y-20523373D01*
X88665359Y-20700000D01*
X88647963Y-20876627D01*
X88596443Y-21046466D01*
X88512778Y-21202991D01*
X88483448Y-21238729D01*
X88400186Y-21340186D01*
X88298729Y-21423448D01*
X88262991Y-21452778D01*
X88106466Y-21536443D01*
X87936627Y-21587963D01*
X87870443Y-21594481D01*
X87804260Y-21601000D01*
X87715740Y-21601000D01*
X87649558Y-21594482D01*
X87583373Y-21587963D01*
X87413534Y-21536443D01*
X87257009Y-21452778D01*
X87221271Y-21423448D01*
X87119814Y-21340186D01*
X87036552Y-21238729D01*
X87007222Y-21202991D01*
X86923557Y-21046466D01*
X86872037Y-20876627D01*
X86854641Y-20700000D01*
X86872037Y-20523373D01*
X86923557Y-20353534D01*
X87007222Y-20197009D01*
X87036552Y-20161271D01*
X87119814Y-20059814D01*
X87221271Y-19976552D01*
X87257009Y-19947222D01*
X87413534Y-19863557D01*
X87583373Y-19812037D01*
X87649557Y-19805519D01*
X87715740Y-19799000D01*
X87804260Y-19799000D01*
X87870442Y-19805518D01*
X87870442Y-19805518D01*
G37*
G36*
X91201000Y-21601000D02*
G01*
X89399000Y-21601000D01*
X89399000Y-19799000D01*
X91201000Y-19799000D01*
X91201000Y-21601000D01*
X91201000Y-21601000D01*
G37*
G36*
X105501000Y-21601000D02*
G01*
X103699000Y-21601000D01*
X103699000Y-19799000D01*
X105501000Y-19799000D01*
X105501000Y-21601000D01*
X105501000Y-21601000D01*
G37*
G36*
X102170442Y-19805518D02*
G01*
X102236627Y-19812037D01*
X102406466Y-19863557D01*
X102562991Y-19947222D01*
X102598729Y-19976552D01*
X102700186Y-20059814D01*
X102783448Y-20161271D01*
X102812778Y-20197009D01*
X102896443Y-20353534D01*
X102947963Y-20523373D01*
X102965359Y-20700000D01*
X102947963Y-20876627D01*
X102896443Y-21046466D01*
X102812778Y-21202991D01*
X102783448Y-21238729D01*
X102700186Y-21340186D01*
X102598729Y-21423448D01*
X102562991Y-21452778D01*
X102406466Y-21536443D01*
X102236627Y-21587963D01*
X102170443Y-21594481D01*
X102104260Y-21601000D01*
X102015740Y-21601000D01*
X101949558Y-21594482D01*
X101883373Y-21587963D01*
X101713534Y-21536443D01*
X101557009Y-21452778D01*
X101521271Y-21423448D01*
X101419814Y-21340186D01*
X101336552Y-21238729D01*
X101307222Y-21202991D01*
X101223557Y-21046466D01*
X101172037Y-20876627D01*
X101154641Y-20700000D01*
X101172037Y-20523373D01*
X101223557Y-20353534D01*
X101307222Y-20197009D01*
X101336552Y-20161271D01*
X101419814Y-20059814D01*
X101521271Y-19976552D01*
X101557009Y-19947222D01*
X101713534Y-19863557D01*
X101883373Y-19812037D01*
X101949557Y-19805519D01*
X102015740Y-19799000D01*
X102104260Y-19799000D01*
X102170442Y-19805518D01*
X102170442Y-19805518D01*
G37*
G36*
X99630442Y-19805518D02*
G01*
X99696627Y-19812037D01*
X99866466Y-19863557D01*
X100022991Y-19947222D01*
X100058729Y-19976552D01*
X100160186Y-20059814D01*
X100243448Y-20161271D01*
X100272778Y-20197009D01*
X100356443Y-20353534D01*
X100407963Y-20523373D01*
X100425359Y-20700000D01*
X100407963Y-20876627D01*
X100356443Y-21046466D01*
X100272778Y-21202991D01*
X100243448Y-21238729D01*
X100160186Y-21340186D01*
X100058729Y-21423448D01*
X100022991Y-21452778D01*
X99866466Y-21536443D01*
X99696627Y-21587963D01*
X99630443Y-21594481D01*
X99564260Y-21601000D01*
X99475740Y-21601000D01*
X99409558Y-21594482D01*
X99343373Y-21587963D01*
X99173534Y-21536443D01*
X99017009Y-21452778D01*
X98981271Y-21423448D01*
X98879814Y-21340186D01*
X98796552Y-21238729D01*
X98767222Y-21202991D01*
X98683557Y-21046466D01*
X98632037Y-20876627D01*
X98614641Y-20700000D01*
X98632037Y-20523373D01*
X98683557Y-20353534D01*
X98767222Y-20197009D01*
X98796552Y-20161271D01*
X98879814Y-20059814D01*
X98981271Y-19976552D01*
X99017009Y-19947222D01*
X99173534Y-19863557D01*
X99343373Y-19812037D01*
X99409557Y-19805519D01*
X99475740Y-19799000D01*
X99564260Y-19799000D01*
X99630442Y-19805518D01*
X99630442Y-19805518D01*
G37*
G36*
X97090442Y-19805518D02*
G01*
X97156627Y-19812037D01*
X97326466Y-19863557D01*
X97482991Y-19947222D01*
X97518729Y-19976552D01*
X97620186Y-20059814D01*
X97703448Y-20161271D01*
X97732778Y-20197009D01*
X97816443Y-20353534D01*
X97867963Y-20523373D01*
X97885359Y-20700000D01*
X97867963Y-20876627D01*
X97816443Y-21046466D01*
X97732778Y-21202991D01*
X97703448Y-21238729D01*
X97620186Y-21340186D01*
X97518729Y-21423448D01*
X97482991Y-21452778D01*
X97326466Y-21536443D01*
X97156627Y-21587963D01*
X97090443Y-21594481D01*
X97024260Y-21601000D01*
X96935740Y-21601000D01*
X96869558Y-21594482D01*
X96803373Y-21587963D01*
X96633534Y-21536443D01*
X96477009Y-21452778D01*
X96441271Y-21423448D01*
X96339814Y-21340186D01*
X96256552Y-21238729D01*
X96227222Y-21202991D01*
X96143557Y-21046466D01*
X96092037Y-20876627D01*
X96074641Y-20700000D01*
X96092037Y-20523373D01*
X96143557Y-20353534D01*
X96227222Y-20197009D01*
X96256552Y-20161271D01*
X96339814Y-20059814D01*
X96441271Y-19976552D01*
X96477009Y-19947222D01*
X96633534Y-19863557D01*
X96803373Y-19812037D01*
X96869557Y-19805519D01*
X96935740Y-19799000D01*
X97024260Y-19799000D01*
X97090442Y-19805518D01*
X97090442Y-19805518D01*
G37*
G36*
X94550442Y-19805518D02*
G01*
X94616627Y-19812037D01*
X94786466Y-19863557D01*
X94942991Y-19947222D01*
X94978729Y-19976552D01*
X95080186Y-20059814D01*
X95163448Y-20161271D01*
X95192778Y-20197009D01*
X95276443Y-20353534D01*
X95327963Y-20523373D01*
X95345359Y-20700000D01*
X95327963Y-20876627D01*
X95276443Y-21046466D01*
X95192778Y-21202991D01*
X95163448Y-21238729D01*
X95080186Y-21340186D01*
X94978729Y-21423448D01*
X94942991Y-21452778D01*
X94786466Y-21536443D01*
X94616627Y-21587963D01*
X94550443Y-21594481D01*
X94484260Y-21601000D01*
X94395740Y-21601000D01*
X94329558Y-21594482D01*
X94263373Y-21587963D01*
X94093534Y-21536443D01*
X93937009Y-21452778D01*
X93901271Y-21423448D01*
X93799814Y-21340186D01*
X93716552Y-21238729D01*
X93687222Y-21202991D01*
X93603557Y-21046466D01*
X93552037Y-20876627D01*
X93534641Y-20700000D01*
X93552037Y-20523373D01*
X93603557Y-20353534D01*
X93687222Y-20197009D01*
X93716552Y-20161271D01*
X93799814Y-20059814D01*
X93901271Y-19976552D01*
X93937009Y-19947222D01*
X94093534Y-19863557D01*
X94263373Y-19812037D01*
X94329557Y-19805519D01*
X94395740Y-19799000D01*
X94484260Y-19799000D01*
X94550442Y-19805518D01*
X94550442Y-19805518D01*
G37*
G36*
X122601000Y-21401000D02*
G01*
X120799000Y-21401000D01*
X120799000Y-19599000D01*
X122601000Y-19599000D01*
X122601000Y-21401000D01*
X122601000Y-21401000D01*
G37*
M02*
